ffmpeg version 8.1.1 Copyright (c) 2000-2026 the FFmpeg developers
  built with Apple clang version 17.0.0 (clang-1700.6.4.2)
  configuration: --prefix=/opt/homebrew/Cellar/ffmpeg/8.1.1 --enable-shared --enable-pthreads --enable-version3 --cc=clang --host-cflags= --host-ldflags= --enable-ffplay --enable-gpl --enable-libsvtav1 --enable-libopus --enable-libx264 --enable-libmp3lame --enable-libdav1d --enable-libvmaf --enable-libvpx --enable-libx265 --enable-openssl --enable-videotoolbox --enable-audiotoolbox --enable-neon
  libavutil      60. 26.101 / 60. 26.101
  libavcodec     62. 28.101 / 62. 28.101
  libavformat    62. 12.101 / 62. 12.101
  libavdevice    62.  3.101 / 62.  3.101
  libavfilter    11. 14.101 / 11. 14.101
  libswscale      9.  5.101 /  9.  5.101
  libswresample   6.  3.101 /  6.  3.101
Input #0, rtsp, from 'rtsp://localhost:8554/venue-002':
  Metadata:
    title           : No Name
  Duration: N/A, bitrate: N/A
  Stream #0:0: Video: h264 (Constrained Baseline), yuv420p(progressive), 1280x720 [SAR 1:1 DAR 16:9], 15 fps, 30 tbr, 90k tbn
Stream mapping:
  Stream #0:0 -> #0:0 (copy)
Output #0, hls, to '/Users/DEEL/Luca/vibe_check/vibecheck-backend/hls/venue-002/index.m3u8':
  Metadata:
    title           : No Name
    encoder         : Lavf62.12.101
  Stream #0:0: Video: h264 (Constrained Baseline), yuv420p(progressive), 1280x720 [SAR 1:1 DAR 16:9], q=2-31, 15 fps, 30 tbr, 90k tbn
Press [q] to stop, [?] for help
frame=    0 fps=0.0 q=-1.0 size=       0KiB time=00:00:05.66 bitrate=   0.0kbits/s speed=11.2x elapsed=0:00:00.50    frame=    0 fps=0.0 q=-1.0 size=       0KiB time=00:00:06.20 bitrate=   0.0kbits/s speed=6.14x elapsed=0:00:01.00    frame=    0 fps=0.0 q=-1.0 size=       0KiB time=00:00:06.66 bitrate=   0.0kbits/s speed= 4.4x elapsed=0:00:01.51    frame=    0 fps=0.0 q=-1.0 size=       0KiB time=00:00:07.20 bitrate=   0.0kbits/s speed=3.56x elapsed=0:00:02.01    frame=    0 fps=0.0 q=-1.0 size=       0KiB time=00:00:07.66 bitrate=   0.0kbits/s speed=3.04x elapsed=0:00:02.52    frame=    0 fps=0.0 q=-1.0 size=       0KiB time=00:00:08.20 bitrate=   0.0kbits/s speed=2.71x elapsed=0:00:03.02    frame=    0 fps=0.0 q=-1.0 size=       0KiB time=00:00:08.73 bitrate=   0.0kbits/s speed=2.47x elapsed=0:00:03.52    frame=    0 fps=0.0 q=-1.0 size=       0KiB time=00:00:09.20 bitrate=   0.0kbits/s speed=2.28x elapsed=0:00:04.03    frame=    0 fps=0.0 q=-1.0 size=       0KiB time=00:00:09.73 bitrate=   0.0kbits/s speed=2.14x elapsed=0:00:04.53    frame=    0 fps=0.0 q=-1.0 size=       0KiB time=00:00:10.20 bitrate=   0.0kbits/s speed=2.02x elapsed=0:00:05.04    frame=    0 fps=0.0 q=-1.0 size=       0KiB time=00:00:10.73 bitrate=   0.0kbits/s speed=1.93x elapsed=0:00:05.54    frame=    0 fps=0.0 q=-1.0 size=       0KiB time=00:00:11.20 bitrate=   0.0kbits/s speed=1.85x elapsed=0:00:06.04    frame=    0 fps=0.0 q=-1.0 size=       0KiB time=00:00:11.73 bitrate=   0.0kbits/s speed=1.79x elapsed=0:00:06.54    frame=    0 fps=0.0 q=-1.0 size=       0KiB time=00:00:12.20 bitrate=   0.0kbits/s speed=1.73x elapsed=0:00:07.05    frame=    0 fps=0.0 q=-1.0 size=       0KiB time=00:00:12.73 bitrate=   0.0kbits/s speed=1.68x elapsed=0:00:07.55    frame=    0 fps=0.0 q=-1.0 size=       0KiB time=00:00:13.20 bitrate=   0.0kbits/s speed=1.64x elapsed=0:00:08.06    frame=    8 fps=0.9 q=-1.0 size=N/A time=00:00:13.73 bitrate=N/A speed= 1.6x elapsed=0:00:08.56    frame=   16 fps=1.8 q=-1.0 size=N/A time=00:00:14.26 bitrate=N/A speed=1.57x elapsed=0:00:09.07    frame=   23 fps=2.4 q=-1.0 size=N/A time=00:00:14.73 bitrate=N/A speed=1.54x elapsed=0:00:09.57    frame=   31 fps=3.1 q=-1.0 size=N/A time=00:00:15.26 bitrate=N/A speed=1.52x elapsed=0:00:10.07    frame=   38 fps=3.6 q=-1.0 size=N/A time=00:00:15.73 bitrate=N/A speed=1.49x elapsed=0:00:10.58    frame=   46 fps=4.2 q=-1.0 size=N/A time=00:00:16.26 bitrate=N/A speed=1.47x elapsed=0:00:11.08    frame=   53 fps=4.6 q=-1.0 size=N/A time=00:00:16.73 bitrate=N/A speed=1.44x elapsed=0:00:11.58    frame=   61 fps=5.0 q=-1.0 size=N/A time=00:00:17.26 bitrate=N/A speed=1.43x elapsed=0:00:12.08    frame=   68 fps=5.4 q=-1.0 size=N/A time=00:00:17.73 bitrate=N/A speed=1.41x elapsed=0:00:12.59    frame=   76 fps=5.8 q=-1.0 size=N/A time=00:00:18.26 bitrate=N/A speed=1.39x elapsed=0:00:13.09    frame=   83 fps=6.1 q=-1.0 size=N/A time=00:00:18.73 bitrate=N/A speed=1.38x elapsed=0:00:13.60    frame=   91 fps=6.4 q=-1.0 size=N/A time=00:00:19.26 bitrate=N/A speed=1.37x elapsed=0:00:14.10    frame=   99 fps=6.8 q=-1.0 size=N/A time=00:00:19.80 bitrate=N/A speed=1.35x elapsed=0:00:14.61    frame=  106 fps=7.0 q=-1.0 size=N/A time=00:00:20.26 bitrate=N/A speed=1.34x elapsed=0:00:15.11    frame=  114 fps=7.3 q=-1.0 size=N/A time=00:00:20.80 bitrate=N/A speed=1.33x elapsed=0:00:15.62    frame=  121 fps=7.5 q=-1.0 size=N/A time=00:00:21.26 bitrate=N/A speed=1.32x elapsed=0:00:16.13    frame=  129 fps=7.8 q=-1.0 size=N/A time=00:00:21.80 bitrate=N/A speed=1.31x elapsed=0:00:16.63    frame=  136 fps=7.9 q=-1.0 size=N/A time=00:00:22.26 bitrate=N/A speed= 1.3x elapsed=0:00:17.13    frame=  144 fps=8.2 q=-1.0 size=N/A time=00:00:22.80 bitrate=N/A speed=1.29x elapsed=0:00:17.63    frame=  152 fps=8.4 q=-1.0 size=N/A time=00:00:23.33 bitrate=N/A speed=1.29x elapsed=0:00:18.14    frame=  159 fps=8.5 q=-1.0 size=N/A time=00:00:23.80 bitrate=N/A speed=1.28x elapsed=0:00:18.65    frame=  167 fps=8.7 q=-1.0 size=N/A time=00:00:24.33 bitrate=N/A speed=1.27x elapsed=0:00:19.15    frame=  174 fps=8.9 q=-1.0 size=N/A time=00:00:24.80 bitrate=N/A speed=1.26x elapsed=0:00:19.65    frame=  182 fps=9.0 q=-1.0 size=N/A time=00:00:25.33 bitrate=N/A speed=1.26x elapsed=0:00:20.16    frame=  190 fps=9.2 q=-1.0 size=N/A time=00:00:25.86 bitrate=N/A speed=1.25x elapsed=0:00:20.66    frame=  197 fps=9.3 q=-1.0 size=N/A time=00:00:26.33 bitrate=N/A speed=1.24x elapsed=0:00:21.17    frame=  205 fps=9.5 q=-1.0 size=N/A time=00:00:26.86 bitrate=N/A speed=1.24x elapsed=0:00:21.68    frame=  212 fps=9.6 q=-1.0 size=N/A time=00:00:27.33 bitrate=N/A speed=1.23x elapsed=0:00:22.19    frame=  220 fps=9.7 q=-1.0 size=N/A time=00:00:27.86 bitrate=N/A speed=1.23x elapsed=0:00:22.69    frame=  228 fps=9.8 q=-1.0 size=N/A time=00:00:28.40 bitrate=N/A speed=1.22x elapsed=0:00:23.19    frame=  235 fps=9.9 q=-1.0 size=N/A time=00:00:28.86 bitrate=N/A speed=1.22x elapsed=0:00:23.69    frame=  243 fps= 10 q=-1.0 size=N/A time=00:00:29.40 bitrate=N/A speed=1.21x elapsed=0:00:24.19    frame=  250 fps= 10 q=-1.0 size=N/A time=00:00:29.86 bitrate=N/A speed=1.21x elapsed=0:00:24.70    [hls @ 0x120604560] Opening '/Users/DEEL/Luca/vibe_check/vibecheck-backend/hls/venue-002/index0.ts' for writing
[hls @ 0x120604560] Opening '/Users/DEEL/Luca/vibe_check/vibecheck-backend/hls/venue-002/index.m3u8.tmp' for writing
frame=  258 fps= 10 q=-1.0 size=N/A time=00:00:30.40 bitrate=N/A speed=1.21x elapsed=0:00:25.20    frame=  265 fps= 10 q=-1.0 size=N/A time=00:00:30.86 bitrate=N/A speed= 1.2x elapsed=0:00:25.70    frame=  273 fps= 10 q=-1.0 size=N/A time=00:00:31.40 bitrate=N/A speed= 1.2x elapsed=0:00:26.21    frame=  280 fps= 10 q=-1.0 size=N/A time=00:00:31.86 bitrate=N/A speed=1.19x elapsed=0:00:26.71    frame=  288 fps= 11 q=-1.0 size=N/A time=00:00:32.40 bitrate=N/A speed=1.19x elapsed=0:00:27.21    frame=  295 fps= 11 q=-1.0 size=N/A time=00:00:32.86 bitrate=N/A speed=1.19x elapsed=0:00:27.71    frame=  303 fps= 11 q=-1.0 size=N/A time=00:00:33.40 bitrate=N/A speed=1.18x elapsed=0:00:28.21    frame=  310 fps= 11 q=-1.0 size=N/A time=00:00:33.86 bitrate=N/A speed=1.18x elapsed=0:00:28.71    frame=  318 fps= 11 q=-1.0 size=N/A time=00:00:34.40 bitrate=N/A speed=1.18x elapsed=0:00:29.22    frame=  325 fps= 11 q=-1.0 size=N/A time=00:00:34.86 bitrate=N/A speed=1.17x elapsed=0:00:29.72    frame=  333 fps= 11 q=-1.0 size=N/A time=00:00:35.40 bitrate=N/A speed=1.17x elapsed=0:00:30.23    frame=  341 fps= 11 q=-1.0 size=N/A time=00:00:35.93 bitrate=N/A speed=1.17x elapsed=0:00:30.73    frame=  348 fps= 11 q=-1.0 size=N/A time=00:00:36.40 bitrate=N/A speed=1.17x elapsed=0:00:31.23    frame=  356 fps= 11 q=-1.0 size=N/A time=00:00:36.93 bitrate=N/A speed=1.16x elapsed=0:00:31.74    frame=  363 fps= 11 q=-1.0 size=N/A time=00:00:37.40 bitrate=N/A speed=1.16x elapsed=0:00:32.24    frame=  371 fps= 11 q=-1.0 size=N/A time=00:00:37.93 bitrate=N/A speed=1.16x elapsed=0:00:32.75    frame=  378 fps= 11 q=-1.0 size=N/A time=00:00:38.40 bitrate=N/A speed=1.15x elapsed=0:00:33.25    frame=  386 fps= 11 q=-1.0 size=N/A time=00:00:38.93 bitrate=N/A speed=1.15x elapsed=0:00:33.75    frame=  393 fps= 11 q=-1.0 size=N/A time=00:00:39.40 bitrate=N/A speed=1.15x elapsed=0:00:34.25    frame=  401 fps= 12 q=-1.0 size=N/A time=00:00:39.93 bitrate=N/A speed=1.15x elapsed=0:00:34.76    frame=  409 fps= 12 q=-1.0 size=N/A time=00:00:40.46 bitrate=N/A speed=1.15x elapsed=0:00:35.26    frame=  416 fps= 12 q=-1.0 size=N/A time=00:00:40.93 bitrate=N/A speed=1.14x elapsed=0:00:35.77    frame=  424 fps= 12 q=-1.0 size=N/A time=00:00:41.46 bitrate=N/A speed=1.14x elapsed=0:00:36.27    frame=  431 fps= 12 q=-1.0 size=N/A time=00:00:41.93 bitrate=N/A speed=1.14x elapsed=0:00:36.77    frame=  439 fps= 12 q=-1.0 size=N/A time=00:00:42.46 bitrate=N/A speed=1.14x elapsed=0:00:37.28    frame=  446 fps= 12 q=-1.0 size=N/A time=00:00:42.93 bitrate=N/A speed=1.14x elapsed=0:00:37.78    frame=  454 fps= 12 q=-1.0 size=N/A time=00:00:43.46 bitrate=N/A speed=1.14x elapsed=0:00:38.29    frame=  461 fps= 12 q=-1.0 size=N/A time=00:00:43.93 bitrate=N/A speed=1.13x elapsed=0:00:38.79    frame=  469 fps= 12 q=-1.0 size=N/A time=00:00:44.46 bitrate=N/A speed=1.13x elapsed=0:00:39.30    frame=  477 fps= 12 q=-1.0 size=N/A time=00:00:45.00 bitrate=N/A speed=1.13x elapsed=0:00:39.80    frame=  484 fps= 12 q=-1.0 size=N/A time=00:00:45.46 bitrate=N/A speed=1.13x elapsed=0:00:40.31    frame=  492 fps= 12 q=-1.0 size=N/A time=00:00:46.00 bitrate=N/A speed=1.13x elapsed=0:00:40.81    frame=  499 fps= 12 q=-1.0 size=N/A time=00:00:46.46 bitrate=N/A speed=1.12x elapsed=0:00:41.31    [hls @ 0x120604560] Opening '/Users/DEEL/Luca/vibe_check/vibecheck-backend/hls/venue-002/index1.ts' for writing
[hls @ 0x120604560] Opening '/Users/DEEL/Luca/vibe_check/vibecheck-backend/hls/venue-002/index.m3u8.tmp' for writing
frame=  507 fps= 12 q=-1.0 size=N/A time=00:00:47.00 bitrate=N/A speed=1.12x elapsed=0:00:41.82    frame=  514 fps= 12 q=-1.0 size=N/A time=00:00:47.46 bitrate=N/A speed=1.12x elapsed=0:00:42.33    frame=  522 fps= 12 q=-1.0 size=N/A time=00:00:48.00 bitrate=N/A speed=1.12x elapsed=0:00:42.83    frame=  530 fps= 12 q=-1.0 size=N/A time=00:00:48.53 bitrate=N/A speed=1.12x elapsed=0:00:43.33    frame=  537 fps= 12 q=-1.0 size=N/A time=00:00:49.00 bitrate=N/A speed=1.12x elapsed=0:00:43.84    frame=  545 fps= 12 q=-1.0 size=N/A time=00:00:49.53 bitrate=N/A speed=1.12x elapsed=0:00:44.34    frame=  552 fps= 12 q=-1.0 size=N/A time=00:00:50.00 bitrate=N/A speed=1.11x elapsed=0:00:44.85    frame=  560 fps= 12 q=-1.0 size=N/A time=00:00:50.53 bitrate=N/A speed=1.11x elapsed=0:00:45.35    frame=  567 fps= 12 q=-1.0 size=N/A time=00:00:51.00 bitrate=N/A speed=1.11x elapsed=0:00:45.86    frame=  575 fps= 12 q=-1.0 size=N/A time=00:00:51.53 bitrate=N/A speed=1.11x elapsed=0:00:46.36    frame=  583 fps= 12 q=-1.0 size=N/A time=00:00:52.06 bitrate=N/A speed=1.11x elapsed=0:00:46.86    frame=  590 fps= 12 q=-1.0 size=N/A time=00:00:52.53 bitrate=N/A speed=1.11x elapsed=0:00:47.36    frame=  598 fps= 12 q=-1.0 size=N/A time=00:00:53.06 bitrate=N/A speed=1.11x elapsed=0:00:47.87    frame=  605 fps= 13 q=-1.0 size=N/A time=00:00:53.53 bitrate=N/A speed=1.11x elapsed=0:00:48.37    frame=  613 fps= 13 q=-1.0 size=N/A time=00:00:54.06 bitrate=N/A speed=1.11x elapsed=0:00:48.88    frame=  620 fps= 13 q=-1.0 size=N/A time=00:00:54.53 bitrate=N/A speed= 1.1x elapsed=0:00:49.38    frame=  628 fps= 13 q=-1.0 size=N/A time=00:00:55.06 bitrate=N/A speed= 1.1x elapsed=0:00:49.88    frame=  635 fps= 13 q=-1.0 size=N/A time=00:00:55.53 bitrate=N/A speed= 1.1x elapsed=0:00:50.39    frame=  643 fps= 13 q=-1.0 size=N/A time=00:00:56.06 bitrate=N/A speed= 1.1x elapsed=0:00:50.89    frame=  650 fps= 13 q=-1.0 size=N/A time=00:00:56.53 bitrate=N/A speed= 1.1x elapsed=0:00:51.39    frame=  658 fps= 13 q=-1.0 size=N/A time=00:00:57.06 bitrate=N/A speed= 1.1x elapsed=0:00:51.89    frame=  665 fps= 13 q=-1.0 size=N/A time=00:00:57.53 bitrate=N/A speed= 1.1x elapsed=0:00:52.40    frame=  673 fps= 13 q=-1.0 size=N/A time=00:00:58.06 bitrate=N/A speed= 1.1x elapsed=0:00:52.90    frame=  681 fps= 13 q=-1.0 size=N/A time=00:00:58.60 bitrate=N/A speed= 1.1x elapsed=0:00:53.41    frame=  688 fps= 13 q=-1.0 size=N/A time=00:00:59.06 bitrate=N/A speed= 1.1x elapsed=0:00:53.91    frame=  696 fps= 13 q=-1.0 size=N/A time=00:00:59.60 bitrate=N/A speed= 1.1x elapsed=0:00:54.41    frame=  703 fps= 13 q=-1.0 size=N/A time=00:01:00.06 bitrate=N/A speed=1.09x elapsed=0:00:54.92    frame=  711 fps= 13 q=-1.0 size=N/A time=00:01:00.60 bitrate=N/A speed=1.09x elapsed=0:00:55.42    frame=  718 fps= 13 q=-1.0 size=N/A time=00:01:01.06 bitrate=N/A speed=1.09x elapsed=0:00:55.92    frame=  726 fps= 13 q=-1.0 size=N/A time=00:01:01.60 bitrate=N/A speed=1.09x elapsed=0:00:56.43    frame=  734 fps= 13 q=-1.0 size=N/A time=00:01:02.13 bitrate=N/A speed=1.09x elapsed=0:00:56.93    frame=  741 fps= 13 q=-1.0 size=N/A time=00:01:02.60 bitrate=N/A speed=1.09x elapsed=0:00:57.43    frame=  749 fps= 13 q=-1.0 size=N/A time=00:01:03.13 bitrate=N/A speed=1.09x elapsed=0:00:57.93    [hls @ 0x120604560] Opening '/Users/DEEL/Luca/vibe_check/vibecheck-backend/hls/venue-002/index2.ts' for writing
[hls @ 0x120604560] Opening '/Users/DEEL/Luca/vibe_check/vibecheck-backend/hls/venue-002/index.m3u8.tmp' for writing
frame=  756 fps= 13 q=-1.0 size=N/A time=00:01:03.60 bitrate=N/A speed=1.09x elapsed=0:00:58.43    frame=  764 fps= 13 q=-1.0 size=N/A time=00:01:04.13 bitrate=N/A speed=1.09x elapsed=0:00:58.94    frame=  771 fps= 13 q=-1.0 size=N/A time=00:01:04.60 bitrate=N/A speed=1.09x elapsed=0:00:59.44    frame=  779 fps= 13 q=-1.0 size=N/A time=00:01:05.13 bitrate=N/A speed=1.09x elapsed=0:00:59.94    frame=  786 fps= 13 q=-1.0 size=N/A time=00:01:05.60 bitrate=N/A speed=1.09x elapsed=0:01:00.45    frame=  794 fps= 13 q=-1.0 size=N/A time=00:01:06.13 bitrate=N/A speed=1.08x elapsed=0:01:00.95    frame=  801 fps= 13 q=-1.0 size=N/A time=00:01:06.60 bitrate=N/A speed=1.08x elapsed=0:01:01.46    frame=  809 fps= 13 q=-1.0 size=N/A time=00:01:07.13 bitrate=N/A speed=1.08x elapsed=0:01:01.96    frame=  817 fps= 13 q=-1.0 size=N/A time=00:01:07.66 bitrate=N/A speed=1.08x elapsed=0:01:02.46    frame=  824 fps= 13 q=-1.0 size=N/A time=00:01:08.13 bitrate=N/A speed=1.08x elapsed=0:01:02.97    frame=  832 fps= 13 q=-1.0 size=N/A time=00:01:08.66 bitrate=N/A speed=1.08x elapsed=0:01:03.47    frame=  839 fps= 13 q=-1.0 size=N/A time=00:01:09.13 bitrate=N/A speed=1.08x elapsed=0:01:03.98    frame=  847 fps= 13 q=-1.0 size=N/A time=00:01:09.66 bitrate=N/A speed=1.08x elapsed=0:01:04.48    frame=  854 fps= 13 q=-1.0 size=N/A time=00:01:10.13 bitrate=N/A speed=1.08x elapsed=0:01:04.98    frame=  862 fps= 13 q=-1.0 size=N/A time=00:01:10.66 bitrate=N/A speed=1.08x elapsed=0:01:05.49    frame=  869 fps= 13 q=-1.0 size=N/A time=00:01:11.13 bitrate=N/A speed=1.08x elapsed=0:01:05.99    frame=  877 fps= 13 q=-1.0 size=N/A time=00:01:11.66 bitrate=N/A speed=1.08x elapsed=0:01:06.49    frame=  885 fps= 13 q=-1.0 size=N/A time=00:01:12.20 bitrate=N/A speed=1.08x elapsed=0:01:07.00    frame=  892 fps= 13 q=-1.0 size=N/A time=00:01:12.66 bitrate=N/A speed=1.08x elapsed=0:01:07.50    frame=  900 fps= 13 q=-1.0 size=N/A time=00:01:13.20 bitrate=N/A speed=1.08x elapsed=0:01:08.00    frame=  907 fps= 13 q=-1.0 size=N/A time=00:01:13.66 bitrate=N/A speed=1.08x elapsed=0:01:08.51    frame=  915 fps= 13 q=-1.0 size=N/A time=00:01:14.20 bitrate=N/A speed=1.08x elapsed=0:01:09.01    frame=  922 fps= 13 q=-1.0 size=N/A time=00:01:14.66 bitrate=N/A speed=1.07x elapsed=0:01:09.51    frame=  930 fps= 13 q=-1.0 size=N/A time=00:01:15.20 bitrate=N/A speed=1.07x elapsed=0:01:10.02    frame=  937 fps= 13 q=-1.0 size=N/A time=00:01:15.66 bitrate=N/A speed=1.07x elapsed=0:01:10.52    frame=  945 fps= 13 q=-1.0 size=N/A time=00:01:16.20 bitrate=N/A speed=1.07x elapsed=0:01:11.02    frame=  953 fps= 13 q=-1.0 size=N/A time=00:01:16.73 bitrate=N/A speed=1.07x elapsed=0:01:11.53    frame=  960 fps= 13 q=-1.0 size=N/A time=00:01:17.20 bitrate=N/A speed=1.07x elapsed=0:01:12.03    frame=  968 fps= 13 q=-1.0 size=N/A time=00:01:17.73 bitrate=N/A speed=1.07x elapsed=0:01:12.53    frame=  975 fps= 13 q=-1.0 size=N/A time=00:01:18.20 bitrate=N/A speed=1.07x elapsed=0:01:13.04    frame=  983 fps= 13 q=-1.0 size=N/A time=00:01:18.73 bitrate=N/A speed=1.07x elapsed=0:01:13.54    frame=  990 fps= 13 q=-1.0 size=N/A time=00:01:19.20 bitrate=N/A speed=1.07x elapsed=0:01:14.04    frame=  998 fps= 13 q=-1.0 size=N/A time=00:01:19.73 bitrate=N/A speed=1.07x elapsed=0:01:14.55    [hls @ 0x120604560] Opening '/Users/DEEL/Luca/vibe_check/vibecheck-backend/hls/venue-002/index3.ts' for writing
[hls @ 0x120604560] Opening '/Users/DEEL/Luca/vibe_check/vibecheck-backend/hls/venue-002/index.m3u8.tmp' for writing
frame= 1005 fps= 13 q=-1.0 size=N/A time=00:01:20.20 bitrate=N/A speed=1.07x elapsed=0:01:15.07    frame= 1013 fps= 13 q=-1.0 size=N/A time=00:01:20.73 bitrate=N/A speed=1.07x elapsed=0:01:15.58    frame= 1021 fps= 13 q=-1.0 size=N/A time=00:01:21.26 bitrate=N/A speed=1.07x elapsed=0:01:16.09    frame= 1028 fps= 13 q=-1.0 size=N/A time=00:01:21.73 bitrate=N/A speed=1.07x elapsed=0:01:16.59    frame= 1036 fps= 13 q=-1.0 size=N/A time=00:01:22.26 bitrate=N/A speed=1.07x elapsed=0:01:17.09    frame= 1043 fps= 13 q=-1.0 size=N/A time=00:01:22.73 bitrate=N/A speed=1.07x elapsed=0:01:17.59    frame= 1051 fps= 13 q=-1.0 size=N/A time=00:01:23.26 bitrate=N/A speed=1.07x elapsed=0:01:18.09    frame= 1059 fps= 13 q=-1.0 size=N/A time=00:01:23.80 bitrate=N/A speed=1.07x elapsed=0:01:18.60    frame= 1066 fps= 13 q=-1.0 size=N/A time=00:01:24.26 bitrate=N/A speed=1.07x elapsed=0:01:19.10    frame= 1074 fps= 13 q=-1.0 size=N/A time=00:01:24.80 bitrate=N/A speed=1.07x elapsed=0:01:19.61    frame= 1081 fps= 13 q=-1.0 size=N/A time=00:01:25.26 bitrate=N/A speed=1.06x elapsed=0:01:20.11    frame= 1089 fps= 14 q=-1.0 size=N/A time=00:01:25.80 bitrate=N/A speed=1.06x elapsed=0:01:20.61    frame= 1096 fps= 14 q=-1.0 size=N/A time=00:01:26.26 bitrate=N/A speed=1.06x elapsed=0:01:21.11    frame= 1104 fps= 14 q=-1.0 size=N/A time=00:01:26.80 bitrate=N/A speed=1.06x elapsed=0:01:21.62    frame= 1111 fps= 14 q=-1.0 size=N/A time=00:01:27.26 bitrate=N/A speed=1.06x elapsed=0:01:22.12    frame= 1119 fps= 14 q=-1.0 size=N/A time=00:01:27.80 bitrate=N/A speed=1.06x elapsed=0:01:22.63    frame= 1127 fps= 14 q=-1.0 size=N/A time=00:01:28.33 bitrate=N/A speed=1.06x elapsed=0:01:23.14    frame= 1134 fps= 14 q=-1.0 size=N/A time=00:01:28.80 bitrate=N/A speed=1.06x elapsed=0:01:23.64    frame= 1142 fps= 14 q=-1.0 size=N/A time=00:01:29.33 bitrate=N/A speed=1.06x elapsed=0:01:24.14    frame= 1149 fps= 14 q=-1.0 size=N/A time=00:01:29.80 bitrate=N/A speed=1.06x elapsed=0:01:24.65    frame= 1157 fps= 14 q=-1.0 size=N/A time=00:01:30.33 bitrate=N/A speed=1.06x elapsed=0:01:25.15    frame= 1164 fps= 14 q=-1.0 size=N/A time=00:01:30.80 bitrate=N/A speed=1.06x elapsed=0:01:25.65    frame= 1172 fps= 14 q=-1.0 size=N/A time=00:01:31.33 bitrate=N/A speed=1.06x elapsed=0:01:26.15    frame= 1179 fps= 14 q=-1.0 size=N/A time=00:01:31.80 bitrate=N/A speed=1.06x elapsed=0:01:26.65    frame= 1187 fps= 14 q=-1.0 size=N/A time=00:01:32.33 bitrate=N/A speed=1.06x elapsed=0:01:27.16    frame= 1195 fps= 14 q=-1.0 size=N/A time=00:01:32.86 bitrate=N/A speed=1.06x elapsed=0:01:27.66    frame= 1202 fps= 14 q=-1.0 size=N/A time=00:01:33.33 bitrate=N/A speed=1.06x elapsed=0:01:28.16    frame= 1210 fps= 14 q=-1.0 size=N/A time=00:01:33.86 bitrate=N/A speed=1.06x elapsed=0:01:28.66    frame= 1217 fps= 14 q=-1.0 size=N/A time=00:01:34.33 bitrate=N/A speed=1.06x elapsed=0:01:29.16    frame= 1225 fps= 14 q=-1.0 size=N/A time=00:01:34.86 bitrate=N/A speed=1.06x elapsed=0:01:29.66    frame= 1232 fps= 14 q=-1.0 size=N/A time=00:01:35.33 bitrate=N/A speed=1.06x elapsed=0:01:30.17    frame= 1240 fps= 14 q=-1.0 size=N/A time=00:01:35.86 bitrate=N/A speed=1.06x elapsed=0:01:30.67    frame= 1247 fps= 14 q=-1.0 size=N/A time=00:01:36.33 bitrate=N/A speed=1.06x elapsed=0:01:31.17    [hls @ 0x120604560] Opening '/Users/DEEL/Luca/vibe_check/vibecheck-backend/hls/venue-002/index4.ts' for writing
[hls @ 0x120604560] Opening '/Users/DEEL/Luca/vibe_check/vibecheck-backend/hls/venue-002/index.m3u8.tmp' for writing
frame= 1255 fps= 14 q=-1.0 size=N/A time=00:01:36.86 bitrate=N/A speed=1.06x elapsed=0:01:31.68    frame= 1262 fps= 14 q=-1.0 size=N/A time=00:01:37.33 bitrate=N/A speed=1.06x elapsed=0:01:32.18    frame= 1270 fps= 14 q=-1.0 size=N/A time=00:01:37.86 bitrate=N/A speed=1.06x elapsed=0:01:32.69    frame= 1278 fps= 14 q=-1.0 size=N/A time=00:01:38.40 bitrate=N/A speed=1.06x elapsed=0:01:33.19    frame= 1285 fps= 14 q=-1.0 size=N/A time=00:01:38.86 bitrate=N/A speed=1.06x elapsed=0:01:33.69    frame= 1293 fps= 14 q=-1.0 size=N/A time=00:01:39.40 bitrate=N/A speed=1.06x elapsed=0:01:34.20    frame= 1300 fps= 14 q=-1.0 size=N/A time=00:01:39.86 bitrate=N/A speed=1.05x elapsed=0:01:34.70    frame= 1308 fps= 14 q=-1.0 size=N/A time=00:01:40.40 bitrate=N/A speed=1.05x elapsed=0:01:35.20    frame= 1315 fps= 14 q=-1.0 size=N/A time=00:01:40.86 bitrate=N/A speed=1.05x elapsed=0:01:35.71    frame= 1323 fps= 14 q=-1.0 size=N/A time=00:01:41.40 bitrate=N/A speed=1.05x elapsed=0:01:36.21    frame= 1330 fps= 14 q=-1.0 size=N/A time=00:01:41.86 bitrate=N/A speed=1.05x elapsed=0:01:36.71    frame= 1338 fps= 14 q=-1.0 size=N/A time=00:01:42.40 bitrate=N/A speed=1.05x elapsed=0:01:37.22    frame= 1345 fps= 14 q=-1.0 size=N/A time=00:01:42.86 bitrate=N/A speed=1.05x elapsed=0:01:37.72    frame= 1353 fps= 14 q=-1.0 size=N/A time=00:01:43.40 bitrate=N/A speed=1.05x elapsed=0:01:38.22    frame= 1361 fps= 14 q=-1.0 size=N/A time=00:01:43.93 bitrate=N/A speed=1.05x elapsed=0:01:38.73    frame= 1368 fps= 14 q=-1.0 size=N/A time=00:01:44.40 bitrate=N/A speed=1.05x elapsed=0:01:39.23    frame= 1376 fps= 14 q=-1.0 size=N/A time=00:01:44.93 bitrate=N/A speed=1.05x elapsed=0:01:39.74    frame= 1383 fps= 14 q=-1.0 size=N/A time=00:01:45.40 bitrate=N/A speed=1.05x elapsed=0:01:40.24    frame= 1391 fps= 14 q=-1.0 size=N/A time=00:01:45.93 bitrate=N/A speed=1.05x elapsed=0:01:40.74    frame= 1398 fps= 14 q=-1.0 size=N/A time=00:01:46.40 bitrate=N/A speed=1.05x elapsed=0:01:41.25    frame= 1406 fps= 14 q=-1.0 size=N/A time=00:01:46.93 bitrate=N/A speed=1.05x elapsed=0:01:41.75    frame= 1413 fps= 14 q=-1.0 size=N/A time=00:01:47.40 bitrate=N/A speed=1.05x elapsed=0:01:42.26    frame= 1421 fps= 14 q=-1.0 size=N/A time=00:01:47.93 bitrate=N/A speed=1.05x elapsed=0:01:42.76    frame= 1429 fps= 14 q=-1.0 size=N/A time=00:01:48.46 bitrate=N/A speed=1.05x elapsed=0:01:43.27    frame= 1436 fps= 14 q=-1.0 size=N/A time=00:01:48.93 bitrate=N/A speed=1.05x elapsed=0:01:43.77    frame= 1444 fps= 14 q=-1.0 size=N/A time=00:01:49.46 bitrate=N/A speed=1.05x elapsed=0:01:44.27    frame= 1451 fps= 14 q=-1.0 size=N/A time=00:01:49.93 bitrate=N/A speed=1.05x elapsed=0:01:44.78    frame= 1459 fps= 14 q=-1.0 size=N/A time=00:01:50.46 bitrate=N/A speed=1.05x elapsed=0:01:45.29    frame= 1466 fps= 14 q=-1.0 size=N/A time=00:01:50.93 bitrate=N/A speed=1.05x elapsed=0:01:45.79    frame= 1474 fps= 14 q=-1.0 size=N/A time=00:01:51.46 bitrate=N/A speed=1.05x elapsed=0:01:46.29    frame= 1482 fps= 14 q=-1.0 size=N/A time=00:01:52.00 bitrate=N/A speed=1.05x elapsed=0:01:46.80    frame= 1489 fps= 14 q=-1.0 size=N/A time=00:01:52.46 bitrate=N/A speed=1.05x elapsed=0:01:47.30    frame= 1497 fps= 14 q=-1.0 size=N/A time=00:01:53.00 bitrate=N/A speed=1.05x elapsed=0:01:47.80    [hls @ 0x120604560] Opening '/Users/DEEL/Luca/vibe_check/vibecheck-backend/hls/venue-002/index5.ts' for writing
[hls @ 0x120604560] Opening '/Users/DEEL/Luca/vibe_check/vibecheck-backend/hls/venue-002/index.m3u8.tmp' for writing
frame= 1504 fps= 14 q=-1.0 size=N/A time=00:01:53.46 bitrate=N/A speed=1.05x elapsed=0:01:48.31    frame= 1512 fps= 14 q=-1.0 size=N/A time=00:01:54.00 bitrate=N/A speed=1.05x elapsed=0:01:48.81    frame= 1519 fps= 14 q=-1.0 size=N/A time=00:01:54.46 bitrate=N/A speed=1.05x elapsed=0:01:49.32    frame= 1527 fps= 14 q=-1.0 size=N/A time=00:01:55.00 bitrate=N/A speed=1.05x elapsed=0:01:49.82    frame= 1534 fps= 14 q=-1.0 size=N/A time=00:01:55.46 bitrate=N/A speed=1.05x elapsed=0:01:50.32    frame= 1542 fps= 14 q=-1.0 size=N/A time=00:01:56.00 bitrate=N/A speed=1.05x elapsed=0:01:50.83    frame= 1550 fps= 14 q=-1.0 size=N/A time=00:01:56.53 bitrate=N/A speed=1.05x elapsed=0:01:51.33    frame= 1557 fps= 14 q=-1.0 size=N/A time=00:01:57.00 bitrate=N/A speed=1.05x elapsed=0:01:51.83    frame= 1565 fps= 14 q=-1.0 size=N/A time=00:01:57.53 bitrate=N/A speed=1.05x elapsed=0:01:52.34    frame= 1572 fps= 14 q=-1.0 size=N/A time=00:01:58.00 bitrate=N/A speed=1.05x elapsed=0:01:52.84    frame= 1580 fps= 14 q=-1.0 size=N/A time=00:01:58.53 bitrate=N/A speed=1.05x elapsed=0:01:53.35    frame= 1587 fps= 14 q=-1.0 size=N/A time=00:01:59.00 bitrate=N/A speed=1.05x elapsed=0:01:53.85    frame= 1595 fps= 14 q=-1.0 size=N/A time=00:01:59.53 bitrate=N/A speed=1.05x elapsed=0:01:54.35    frame= 1602 fps= 14 q=-1.0 size=N/A time=00:02:00.00 bitrate=N/A speed=1.04x elapsed=0:01:54.86    frame= 1610 fps= 14 q=-1.0 size=N/A time=00:02:00.53 bitrate=N/A speed=1.04x elapsed=0:01:55.36    frame= 1618 fps= 14 q=-1.0 size=N/A time=00:02:01.06 bitrate=N/A speed=1.04x elapsed=0:01:55.87    frame= 1625 fps= 14 q=-1.0 size=N/A time=00:02:01.53 bitrate=N/A speed=1.04x elapsed=0:01:56.37    frame= 1633 fps= 14 q=-1.0 size=N/A time=00:02:02.06 bitrate=N/A speed=1.04x elapsed=0:01:56.87    frame= 1640 fps= 14 q=-1.0 size=N/A time=00:02:02.53 bitrate=N/A speed=1.04x elapsed=0:01:57.37    frame= 1648 fps= 14 q=-1.0 size=N/A time=00:02:03.06 bitrate=N/A speed=1.04x elapsed=0:01:57.88    frame= 1655 fps= 14 q=-1.0 size=N/A time=00:02:03.53 bitrate=N/A speed=1.04x elapsed=0:01:58.38    frame= 1663 fps= 14 q=-1.0 size=N/A time=00:02:04.06 bitrate=N/A speed=1.04x elapsed=0:01:58.89    frame= 1670 fps= 14 q=-1.0 size=N/A time=00:02:04.53 bitrate=N/A speed=1.04x elapsed=0:01:59.39    frame= 1678 fps= 14 q=-1.0 size=N/A time=00:02:05.06 bitrate=N/A speed=1.04x elapsed=0:01:59.89    frame= 1685 fps= 14 q=-1.0 size=N/A time=00:02:05.53 bitrate=N/A speed=1.04x elapsed=0:02:00.39    frame= 1693 fps= 14 q=-1.0 size=N/A time=00:02:06.06 bitrate=N/A speed=1.04x elapsed=0:02:00.90    frame= 1701 fps= 14 q=-1.0 size=N/A time=00:02:06.60 bitrate=N/A speed=1.04x elapsed=0:02:01.40    frame= 1708 fps= 14 q=-1.0 size=N/A time=00:02:07.06 bitrate=N/A speed=1.04x elapsed=0:02:01.90    frame= 1716 fps= 14 q=-1.0 size=N/A time=00:02:07.60 bitrate=N/A speed=1.04x elapsed=0:02:02.41    frame= 1723 fps= 14 q=-1.0 size=N/A time=00:02:08.06 bitrate=N/A speed=1.04x elapsed=0:02:02.91    frame= 1731 fps= 14 q=-1.0 size=N/A time=00:02:08.60 bitrate=N/A speed=1.04x elapsed=0:02:03.41    frame= 1738 fps= 14 q=-1.0 size=N/A time=00:02:09.06 bitrate=N/A speed=1.04x elapsed=0:02:03.92    frame= 1746 fps= 14 q=-1.0 size=N/A time=00:02:09.60 bitrate=N/A speed=1.04x elapsed=0:02:04.42    [hls @ 0x120604560] Opening '/Users/DEEL/Luca/vibe_check/vibecheck-backend/hls/venue-002/index6.ts' for writing
[hls @ 0x120604560] Opening '/Users/DEEL/Luca/vibe_check/vibecheck-backend/hls/venue-002/index.m3u8.tmp' for writing
frame= 1753 fps= 14 q=-1.0 size=N/A time=00:02:10.06 bitrate=N/A speed=1.04x elapsed=0:02:04.92    frame= 1761 fps= 14 q=-1.0 size=N/A time=00:02:10.60 bitrate=N/A speed=1.04x elapsed=0:02:05.42    frame= 1769 fps= 14 q=-1.0 size=N/A time=00:02:11.13 bitrate=N/A speed=1.04x elapsed=0:02:05.93    frame= 1776 fps= 14 q=-1.0 size=N/A time=00:02:11.60 bitrate=N/A speed=1.04x elapsed=0:02:06.43    frame= 1784 fps= 14 q=-1.0 size=N/A time=00:02:12.13 bitrate=N/A speed=1.04x elapsed=0:02:06.93    frame= 1791 fps= 14 q=-1.0 size=N/A time=00:02:12.60 bitrate=N/A speed=1.04x elapsed=0:02:07.44    frame= 1799 fps= 14 q=-1.0 size=N/A time=00:02:13.13 bitrate=N/A speed=1.04x elapsed=0:02:07.94    frame= 1806 fps= 14 q=-1.0 size=N/A time=00:02:13.60 bitrate=N/A speed=1.04x elapsed=0:02:08.45    frame= 1814 fps= 14 q=-1.0 size=N/A time=00:02:14.13 bitrate=N/A speed=1.04x elapsed=0:02:08.96    frame= 1821 fps= 14 q=-1.0 size=N/A time=00:02:14.60 bitrate=N/A speed=1.04x elapsed=0:02:09.46    frame= 1829 fps= 14 q=-1.0 size=N/A time=00:02:15.13 bitrate=N/A speed=1.04x elapsed=0:02:09.96    frame= 1837 fps= 14 q=-1.0 size=N/A time=00:02:15.66 bitrate=N/A speed=1.04x elapsed=0:02:10.46    frame= 1844 fps= 14 q=-1.0 size=N/A time=00:02:16.13 bitrate=N/A speed=1.04x elapsed=0:02:10.97    frame= 1852 fps= 14 q=-1.0 size=N/A time=00:02:16.66 bitrate=N/A speed=1.04x elapsed=0:02:11.47    frame= 1859 fps= 14 q=-1.0 size=N/A time=00:02:17.13 bitrate=N/A speed=1.04x elapsed=0:02:11.97    frame= 1867 fps= 14 q=-1.0 size=N/A time=00:02:17.66 bitrate=N/A speed=1.04x elapsed=0:02:12.48    frame= 1874 fps= 14 q=-1.0 size=N/A time=00:02:18.13 bitrate=N/A speed=1.04x elapsed=0:02:12.98    frame= 1882 fps= 14 q=-1.0 size=N/A time=00:02:18.66 bitrate=N/A speed=1.04x elapsed=0:02:13.49    frame= 1889 fps= 14 q=-1.0 size=N/A time=00:02:19.13 bitrate=N/A speed=1.04x elapsed=0:02:14.00    frame= 1897 fps= 14 q=-1.0 size=N/A time=00:02:19.66 bitrate=N/A speed=1.04x elapsed=0:02:14.50    frame= 1905 fps= 14 q=-1.0 size=N/A time=00:02:20.20 bitrate=N/A speed=1.04x elapsed=0:02:15.00    frame= 1912 fps= 14 q=-1.0 size=N/A time=00:02:20.66 bitrate=N/A speed=1.04x elapsed=0:02:15.50    frame= 1920 fps= 14 q=-1.0 size=N/A time=00:02:21.20 bitrate=N/A speed=1.04x elapsed=0:02:16.01    frame= 1927 fps= 14 q=-1.0 size=N/A time=00:02:21.66 bitrate=N/A speed=1.04x elapsed=0:02:16.51    frame= 1935 fps= 14 q=-1.0 size=N/A time=00:02:22.20 bitrate=N/A speed=1.04x elapsed=0:02:17.02    frame= 1942 fps= 14 q=-1.0 size=N/A time=00:02:22.66 bitrate=N/A speed=1.04x elapsed=0:02:17.52    frame= 1950 fps= 14 q=-1.0 size=N/A time=00:02:23.20 bitrate=N/A speed=1.04x elapsed=0:02:18.03    frame= 1958 fps= 14 q=-1.0 size=N/A time=00:02:23.73 bitrate=N/A speed=1.04x elapsed=0:02:18.53    frame= 1965 fps= 14 q=-1.0 size=N/A time=00:02:24.20 bitrate=N/A speed=1.04x elapsed=0:02:19.03    frame= 1973 fps= 14 q=-1.0 size=N/A time=00:02:24.73 bitrate=N/A speed=1.04x elapsed=0:02:19.54    frame= 1980 fps= 14 q=-1.0 size=N/A time=00:02:25.20 bitrate=N/A speed=1.04x elapsed=0:02:20.04    frame= 1988 fps= 14 q=-1.0 size=N/A time=00:02:25.73 bitrate=N/A speed=1.04x elapsed=0:02:20.54    frame= 1995 fps= 14 q=-1.0 size=N/A time=00:02:26.20 bitrate=N/A speed=1.04x elapsed=0:02:21.05    [hls @ 0x120604560] Opening '/Users/DEEL/Luca/vibe_check/vibecheck-backend/hls/venue-002/index7.ts' for writing
[hls @ 0x120604560] Opening '/Users/DEEL/Luca/vibe_check/vibecheck-backend/hls/venue-002/index.m3u8.tmp' for writing
frame= 2003 fps= 14 q=-1.0 size=N/A time=00:02:26.73 bitrate=N/A speed=1.04x elapsed=0:02:21.55    frame= 2010 fps= 14 q=-1.0 size=N/A time=00:02:27.20 bitrate=N/A speed=1.04x elapsed=0:02:22.05    frame= 2018 fps= 14 q=-1.0 size=N/A time=00:02:27.73 bitrate=N/A speed=1.04x elapsed=0:02:22.55    frame= 2025 fps= 14 q=-1.0 size=N/A time=00:02:28.20 bitrate=N/A speed=1.04x elapsed=0:02:23.06    frame= 2033 fps= 14 q=-1.0 size=N/A time=00:02:28.73 bitrate=N/A speed=1.04x elapsed=0:02:23.56    frame= 2041 fps= 14 q=-1.0 size=N/A time=00:02:29.26 bitrate=N/A speed=1.04x elapsed=0:02:24.07    frame= 2048 fps= 14 q=-1.0 size=N/A time=00:02:29.73 bitrate=N/A speed=1.04x elapsed=0:02:24.57    frame= 2056 fps= 14 q=-1.0 size=N/A time=00:02:30.26 bitrate=N/A speed=1.04x elapsed=0:02:25.07    frame= 2063 fps= 14 q=-1.0 size=N/A time=00:02:30.73 bitrate=N/A speed=1.04x elapsed=0:02:25.57    frame= 2071 fps= 14 q=-1.0 size=N/A time=00:02:31.26 bitrate=N/A speed=1.04x elapsed=0:02:26.07    frame= 2078 fps= 14 q=-1.0 size=N/A time=00:02:31.73 bitrate=N/A speed=1.04x elapsed=0:02:26.58    frame= 2086 fps= 14 q=-1.0 size=N/A time=00:02:32.26 bitrate=N/A speed=1.04x elapsed=0:02:27.09    frame= 2093 fps= 14 q=-1.0 size=N/A time=00:02:32.73 bitrate=N/A speed=1.03x elapsed=0:02:27.59    frame= 2101 fps= 14 q=-1.0 size=N/A time=00:02:33.26 bitrate=N/A speed=1.03x elapsed=0:02:28.10    frame= 2109 fps= 14 q=-1.0 size=N/A time=00:02:33.80 bitrate=N/A speed=1.03x elapsed=0:02:28.60    frame= 2116 fps= 14 q=-1.0 size=N/A time=00:02:34.26 bitrate=N/A speed=1.03x elapsed=0:02:29.11    frame= 2124 fps= 14 q=-1.0 size=N/A time=00:02:34.80 bitrate=N/A speed=1.03x elapsed=0:02:29.61    frame= 2131 fps= 14 q=-1.0 size=N/A time=00:02:35.26 bitrate=N/A speed=1.03x elapsed=0:02:30.11    frame= 2139 fps= 14 q=-1.0 size=N/A time=00:02:35.80 bitrate=N/A speed=1.03x elapsed=0:02:30.62    frame= 2146 fps= 14 q=-1.0 size=N/A time=00:02:36.26 bitrate=N/A speed=1.03x elapsed=0:02:31.12    frame= 2154 fps= 14 q=-1.0 size=N/A time=00:02:36.80 bitrate=N/A speed=1.03x elapsed=0:02:31.63    frame= 2161 fps= 14 q=-1.0 size=N/A time=00:02:37.26 bitrate=N/A speed=1.03x elapsed=0:02:32.13    frame= 2169 fps= 14 q=-1.0 size=N/A time=00:02:37.80 bitrate=N/A speed=1.03x elapsed=0:02:32.64    frame= 2177 fps= 14 q=-1.0 size=N/A time=00:02:38.33 bitrate=N/A speed=1.03x elapsed=0:02:33.14    frame= 2184 fps= 14 q=-1.0 size=N/A time=00:02:38.80 bitrate=N/A speed=1.03x elapsed=0:02:33.65    frame= 2192 fps= 14 q=-1.0 size=N/A time=00:02:39.33 bitrate=N/A speed=1.03x elapsed=0:02:34.16    frame= 2200 fps= 14 q=-1.0 size=N/A time=00:02:39.86 bitrate=N/A speed=1.03x elapsed=0:02:34.66    frame= 2207 fps= 14 q=-1.0 size=N/A time=00:02:40.33 bitrate=N/A speed=1.03x elapsed=0:02:35.16    frame= 2215 fps= 14 q=-1.0 size=N/A time=00:02:40.86 bitrate=N/A speed=1.03x elapsed=0:02:35.67    frame= 2222 fps= 14 q=-1.0 size=N/A time=00:02:41.33 bitrate=N/A speed=1.03x elapsed=0:02:36.17    frame= 2230 fps= 14 q=-1.0 size=N/A time=00:02:41.86 bitrate=N/A speed=1.03x elapsed=0:02:36.68    frame= 2237 fps= 14 q=-1.0 size=N/A time=00:02:42.33 bitrate=N/A speed=1.03x elapsed=0:02:37.18    frame= 2245 fps= 14 q=-1.0 size=N/A time=00:02:42.86 bitrate=N/A speed=1.03x elapsed=0:02:37.68    [hls @ 0x120604560] Opening '/Users/DEEL/Luca/vibe_check/vibecheck-backend/hls/venue-002/index8.ts' for writing
[hls @ 0x120604560] Opening '/Users/DEEL/Luca/vibe_check/vibecheck-backend/hls/venue-002/index.m3u8.tmp' for writing
frame= 2252 fps= 14 q=-1.0 size=N/A time=00:02:43.33 bitrate=N/A speed=1.03x elapsed=0:02:38.18    frame= 2260 fps= 14 q=-1.0 size=N/A time=00:02:43.86 bitrate=N/A speed=1.03x elapsed=0:02:38.68    frame= 2267 fps= 14 q=-1.0 size=N/A time=00:02:44.33 bitrate=N/A speed=1.03x elapsed=0:02:39.18    frame= 2275 fps= 14 q=-1.0 size=N/A time=00:02:44.86 bitrate=N/A speed=1.03x elapsed=0:02:39.68    frame= 2282 fps= 14 q=-1.0 size=N/A time=00:02:45.33 bitrate=N/A speed=1.03x elapsed=0:02:40.19    frame= 2290 fps= 14 q=-1.0 size=N/A time=00:02:45.86 bitrate=N/A speed=1.03x elapsed=0:02:40.69    frame= 2298 fps= 14 q=-1.0 size=N/A time=00:02:46.40 bitrate=N/A speed=1.03x elapsed=0:02:41.20    frame= 2305 fps= 14 q=-1.0 size=N/A time=00:02:46.86 bitrate=N/A speed=1.03x elapsed=0:02:41.70    frame= 2313 fps= 14 q=-1.0 size=N/A time=00:02:47.40 bitrate=N/A speed=1.03x elapsed=0:02:42.20    frame= 2323 fps= 14 q=-1.0 size=N/A time=00:02:48.06 bitrate=N/A speed=1.03x elapsed=0:02:42.89    frame= 2332 fps= 14 q=-1.0 size=N/A time=00:02:48.66 bitrate=N/A speed=1.03x elapsed=0:02:43.48    frame= 2339 fps= 14 q=-1.0 size=N/A time=00:02:49.13 bitrate=N/A speed=1.03x elapsed=0:02:43.98    frame= 2347 fps= 14 q=-1.0 size=N/A time=00:02:49.66 bitrate=N/A speed=1.03x elapsed=0:02:44.49    frame= 2354 fps= 14 q=-1.0 size=N/A time=00:02:50.13 bitrate=N/A speed=1.03x elapsed=0:02:44.99    frame= 2362 fps= 14 q=-1.0 size=N/A time=00:02:50.66 bitrate=N/A speed=1.03x elapsed=0:02:45.49    frame= 2369 fps= 14 q=-1.0 size=N/A time=00:02:51.13 bitrate=N/A speed=1.03x elapsed=0:02:45.99    frame= 2377 fps= 14 q=-1.0 size=N/A time=00:02:51.66 bitrate=N/A speed=1.03x elapsed=0:02:46.50    frame= 2385 fps= 14 q=-1.0 size=N/A time=00:02:52.20 bitrate=N/A speed=1.03x elapsed=0:02:47.00    frame= 2392 fps= 14 q=-1.0 size=N/A time=00:02:52.66 bitrate=N/A speed=1.03x elapsed=0:02:47.50    frame= 2400 fps= 14 q=-1.0 size=N/A time=00:02:53.20 bitrate=N/A speed=1.03x elapsed=0:02:48.01    frame= 2407 fps= 14 q=-1.0 size=N/A time=00:02:53.66 bitrate=N/A speed=1.03x elapsed=0:02:48.51    frame= 2415 fps= 14 q=-1.0 size=N/A time=00:02:54.20 bitrate=N/A speed=1.03x elapsed=0:02:49.01    frame= 2422 fps= 14 q=-1.0 size=N/A time=00:02:54.66 bitrate=N/A speed=1.03x elapsed=0:02:49.51    frame= 2430 fps= 14 q=-1.0 size=N/A time=00:02:55.20 bitrate=N/A speed=1.03x elapsed=0:02:50.02    frame= 2437 fps= 14 q=-1.0 size=N/A time=00:02:55.66 bitrate=N/A speed=1.03x elapsed=0:02:50.52    frame= 2445 fps= 14 q=-1.0 size=N/A time=00:02:56.20 bitrate=N/A speed=1.03x elapsed=0:02:51.02    frame= 2453 fps= 14 q=-1.0 size=N/A time=00:02:56.73 bitrate=N/A speed=1.03x elapsed=0:02:51.53    frame= 2460 fps= 14 q=-1.0 size=N/A time=00:02:57.20 bitrate=N/A speed=1.03x elapsed=0:02:52.03    frame= 2468 fps= 14 q=-1.0 size=N/A time=00:02:57.73 bitrate=N/A speed=1.03x elapsed=0:02:52.54    frame= 2475 fps= 14 q=-1.0 size=N/A time=00:02:58.20 bitrate=N/A speed=1.03x elapsed=0:02:53.04    frame= 2483 fps= 14 q=-1.0 size=N/A time=00:02:58.73 bitrate=N/A speed=1.03x elapsed=0:02:53.54    frame= 2490 fps= 14 q=-1.0 size=N/A time=00:02:59.20 bitrate=N/A speed=1.03x elapsed=0:02:54.04    frame= 2498 fps= 14 q=-1.0 size=N/A time=00:02:59.73 bitrate=N/A speed=1.03x elapsed=0:02:54.55    [hls @ 0x120604560] Opening '/Users/DEEL/Luca/vibe_check/vibecheck-backend/hls/venue-002/index9.ts' for writing
[hls @ 0x120604560] Opening '/Users/DEEL/Luca/vibe_check/vibecheck-backend/hls/venue-002/index.m3u8.tmp' for writing
frame= 2505 fps= 14 q=-1.0 size=N/A time=00:03:00.20 bitrate=N/A speed=1.03x elapsed=0:02:55.05    frame= 2513 fps= 14 q=-1.0 size=N/A time=00:03:00.73 bitrate=N/A speed=1.03x elapsed=0:02:55.55    frame= 2520 fps= 14 q=-1.0 size=N/A time=00:03:01.20 bitrate=N/A speed=1.03x elapsed=0:02:56.06    frame= 2528 fps= 14 q=-1.0 size=N/A time=00:03:01.73 bitrate=N/A speed=1.03x elapsed=0:02:56.56    frame= 2536 fps= 14 q=-1.0 size=N/A time=00:03:02.26 bitrate=N/A speed=1.03x elapsed=0:02:57.07    frame= 2543 fps= 14 q=-1.0 size=N/A time=00:03:02.73 bitrate=N/A speed=1.03x elapsed=0:02:57.58    frame= 2551 fps= 14 q=-1.0 size=N/A time=00:03:03.26 bitrate=N/A speed=1.03x elapsed=0:02:58.08    frame= 2558 fps= 14 q=-1.0 size=N/A time=00:03:03.73 bitrate=N/A speed=1.03x elapsed=0:02:58.59    frame= 2566 fps= 14 q=-1.0 size=N/A time=00:03:04.26 bitrate=N/A speed=1.03x elapsed=0:02:59.09    frame= 2574 fps= 14 q=-1.0 size=N/A time=00:03:04.80 bitrate=N/A speed=1.03x elapsed=0:02:59.59    frame= 2581 fps= 14 q=-1.0 size=N/A time=00:03:05.26 bitrate=N/A speed=1.03x elapsed=0:03:00.09    frame= 2588 fps= 14 q=-1.0 size=N/A time=00:03:05.73 bitrate=N/A speed=1.03x elapsed=0:03:00.59    frame= 2596 fps= 14 q=-1.0 size=N/A time=00:03:06.26 bitrate=N/A speed=1.03x elapsed=0:03:01.10    frame= 2604 fps= 14 q=-1.0 size=N/A time=00:03:06.80 bitrate=N/A speed=1.03x elapsed=0:03:01.60    frame= 2611 fps= 14 q=-1.0 size=N/A time=00:03:07.26 bitrate=N/A speed=1.03x elapsed=0:03:02.11    frame= 2619 fps= 14 q=-1.0 size=N/A time=00:03:07.80 bitrate=N/A speed=1.03x elapsed=0:03:02.61    frame= 2626 fps= 14 q=-1.0 size=N/A time=00:03:08.26 bitrate=N/A speed=1.03x elapsed=0:03:03.12    frame= 2634 fps= 14 q=-1.0 size=N/A time=00:03:08.80 bitrate=N/A speed=1.03x elapsed=0:03:03.62    frame= 2641 fps= 14 q=-1.0 size=N/A time=00:03:09.26 bitrate=N/A speed=1.03x elapsed=0:03:04.12    frame= 2649 fps= 14 q=-1.0 size=N/A time=00:03:09.80 bitrate=N/A speed=1.03x elapsed=0:03:04.62    frame= 2656 fps= 14 q=-1.0 size=N/A time=00:03:10.26 bitrate=N/A speed=1.03x elapsed=0:03:05.12    frame= 2664 fps= 14 q=-1.0 size=N/A time=00:03:10.80 bitrate=N/A speed=1.03x elapsed=0:03:05.63    frame= 2672 fps= 14 q=-1.0 size=N/A time=00:03:11.33 bitrate=N/A speed=1.03x elapsed=0:03:06.13    frame= 2679 fps= 14 q=-1.0 size=N/A time=00:03:11.80 bitrate=N/A speed=1.03x elapsed=0:03:06.63    frame= 2687 fps= 14 q=-1.0 size=N/A time=00:03:12.33 bitrate=N/A speed=1.03x elapsed=0:03:07.14    frame= 2694 fps= 14 q=-1.0 size=N/A time=00:03:12.80 bitrate=N/A speed=1.03x elapsed=0:03:07.64    frame= 2702 fps= 14 q=-1.0 size=N/A time=00:03:13.33 bitrate=N/A speed=1.03x elapsed=0:03:08.14    frame= 2709 fps= 14 q=-1.0 size=N/A time=00:03:13.80 bitrate=N/A speed=1.03x elapsed=0:03:08.64    frame= 2717 fps= 14 q=-1.0 size=N/A time=00:03:14.33 bitrate=N/A speed=1.03x elapsed=0:03:09.14    frame= 2724 fps= 14 q=-1.0 size=N/A time=00:03:14.80 bitrate=N/A speed=1.03x elapsed=0:03:09.65    frame= 2732 fps= 14 q=-1.0 size=N/A time=00:03:15.33 bitrate=N/A speed=1.03x elapsed=0:03:10.15    frame= 2739 fps= 14 q=-1.0 size=N/A time=00:03:15.80 bitrate=N/A speed=1.03x elapsed=0:03:10.65    frame= 2747 fps= 14 q=-1.0 size=N/A time=00:03:16.33 bitrate=N/A speed=1.03x elapsed=0:03:11.16    [hls @ 0x120604560] Opening '/Users/DEEL/Luca/vibe_check/vibecheck-backend/hls/venue-002/index10.ts' for writing
[hls @ 0x120604560] Opening '/Users/DEEL/Luca/vibe_check/vibecheck-backend/hls/venue-002/index.m3u8.tmp' for writing
frame= 2755 fps= 14 q=-1.0 size=N/A time=00:03:16.86 bitrate=N/A speed=1.03x elapsed=0:03:11.66    frame= 2762 fps= 14 q=-1.0 size=N/A time=00:03:17.33 bitrate=N/A speed=1.03x elapsed=0:03:12.16    frame= 2770 fps= 14 q=-1.0 size=N/A time=00:03:17.86 bitrate=N/A speed=1.03x elapsed=0:03:12.66    frame= 2777 fps= 14 q=-1.0 size=N/A time=00:03:18.33 bitrate=N/A speed=1.03x elapsed=0:03:13.17    frame= 2785 fps= 14 q=-1.0 size=N/A time=00:03:18.86 bitrate=N/A speed=1.03x elapsed=0:03:13.67    frame= 2792 fps= 14 q=-1.0 size=N/A time=00:03:19.33 bitrate=N/A speed=1.03x elapsed=0:03:14.18    frame= 2800 fps= 14 q=-1.0 size=N/A time=00:03:19.86 bitrate=N/A speed=1.03x elapsed=0:03:14.68    frame= 2807 fps= 14 q=-1.0 size=N/A time=00:03:20.33 bitrate=N/A speed=1.03x elapsed=0:03:15.18    frame= 2815 fps= 14 q=-1.0 size=N/A time=00:03:20.86 bitrate=N/A speed=1.03x elapsed=0:03:15.69    frame= 2822 fps= 14 q=-1.0 size=N/A time=00:03:21.33 bitrate=N/A speed=1.03x elapsed=0:03:16.19    frame= 2830 fps= 14 q=-1.0 size=N/A time=00:03:21.86 bitrate=N/A speed=1.03x elapsed=0:03:16.69    frame= 2837 fps= 14 q=-1.0 size=N/A time=00:03:22.33 bitrate=N/A speed=1.03x elapsed=0:03:17.22    frame= 2845 fps= 14 q=-1.0 size=N/A time=00:03:22.86 bitrate=N/A speed=1.03x elapsed=0:03:17.73    frame= 2853 fps= 14 q=-1.0 size=N/A time=00:03:23.40 bitrate=N/A speed=1.03x elapsed=0:03:18.23    frame= 2861 fps= 14 q=-1.0 size=N/A time=00:03:23.93 bitrate=N/A speed=1.03x elapsed=0:03:18.73    frame= 2868 fps= 14 q=-1.0 size=N/A time=00:03:24.40 bitrate=N/A speed=1.03x elapsed=0:03:19.24    frame= 2876 fps= 14 q=-1.0 size=N/A time=00:03:24.93 bitrate=N/A speed=1.03x elapsed=0:03:19.74    frame= 2883 fps= 14 q=-1.0 size=N/A time=00:03:25.40 bitrate=N/A speed=1.03x elapsed=0:03:20.25    frame= 2891 fps= 14 q=-1.0 size=N/A time=00:03:25.93 bitrate=N/A speed=1.03x elapsed=0:03:20.75    frame= 2898 fps= 14 q=-1.0 size=N/A time=00:03:26.40 bitrate=N/A speed=1.03x elapsed=0:03:21.25    frame= 2906 fps= 14 q=-1.0 size=N/A time=00:03:26.93 bitrate=N/A speed=1.03x elapsed=0:03:21.76    frame= 2914 fps= 14 q=-1.0 size=N/A time=00:03:27.46 bitrate=N/A speed=1.03x elapsed=0:03:22.26    frame= 2921 fps= 14 q=-1.0 size=N/A time=00:03:27.93 bitrate=N/A speed=1.03x elapsed=0:03:22.77    frame= 2929 fps= 14 q=-1.0 size=N/A time=00:03:28.46 bitrate=N/A speed=1.03x elapsed=0:03:23.27    frame= 2936 fps= 14 q=-1.0 size=N/A time=00:03:28.93 bitrate=N/A speed=1.03x elapsed=0:03:23.77    frame= 2944 fps= 14 q=-1.0 size=N/A time=00:03:29.46 bitrate=N/A speed=1.03x elapsed=0:03:24.28    frame= 2951 fps= 14 q=-1.0 size=N/A time=00:03:29.93 bitrate=N/A speed=1.03x elapsed=0:03:24.78    frame= 2959 fps= 14 q=-1.0 size=N/A time=00:03:30.46 bitrate=N/A speed=1.03x elapsed=0:03:25.28    frame= 2966 fps= 14 q=-1.0 size=N/A time=00:03:30.93 bitrate=N/A speed=1.02x elapsed=0:03:25.79    frame= 2974 fps= 14 q=-1.0 size=N/A time=00:03:31.46 bitrate=N/A speed=1.03x elapsed=0:03:26.30    frame= 2982 fps= 14 q=-1.0 size=N/A time=00:03:32.00 bitrate=N/A speed=1.03x elapsed=0:03:26.81    frame= 2989 fps= 14 q=-1.0 size=N/A time=00:03:32.46 bitrate=N/A speed=1.02x elapsed=0:03:27.32    frame= 2997 fps= 14 q=-1.0 size=N/A time=00:03:33.00 bitrate=N/A speed=1.02x elapsed=0:03:27.82    [hls @ 0x120604560] Opening '/Users/DEEL/Luca/vibe_check/vibecheck-backend/hls/venue-002/index11.ts' for writing
[hls @ 0x120604560] Opening '/Users/DEEL/Luca/vibe_check/vibecheck-backend/hls/venue-002/index.m3u8.tmp' for writing
frame= 3004 fps= 14 q=-1.0 size=N/A time=00:03:33.46 bitrate=N/A speed=1.02x elapsed=0:03:28.33    frame= 3012 fps= 14 q=-1.0 size=N/A time=00:03:34.00 bitrate=N/A speed=1.02x elapsed=0:03:28.83    frame= 3020 fps= 14 q=-1.0 size=N/A time=00:03:34.53 bitrate=N/A speed=1.02x elapsed=0:03:29.34    frame= 3027 fps= 14 q=-1.0 size=N/A time=00:03:35.00 bitrate=N/A speed=1.02x elapsed=0:03:29.84    frame= 3035 fps= 14 q=-1.0 size=N/A time=00:03:35.53 bitrate=N/A speed=1.02x elapsed=0:03:30.34    frame= 3042 fps= 14 q=-1.0 size=N/A time=00:03:36.00 bitrate=N/A speed=1.02x elapsed=0:03:30.85    frame= 3050 fps= 14 q=-1.0 size=N/A time=00:03:36.53 bitrate=N/A speed=1.02x elapsed=0:03:31.35    frame= 3057 fps= 14 q=-1.0 size=N/A time=00:03:37.00 bitrate=N/A speed=1.02x elapsed=0:03:31.86    frame= 3065 fps= 14 q=-1.0 size=N/A time=00:03:37.53 bitrate=N/A speed=1.02x elapsed=0:03:32.36    frame= 3073 fps= 14 q=-1.0 size=N/A time=00:03:38.06 bitrate=N/A speed=1.02x elapsed=0:03:32.86    frame= 3080 fps= 14 q=-1.0 size=N/A time=00:03:38.53 bitrate=N/A speed=1.02x elapsed=0:03:33.37    frame= 3088 fps= 14 q=-1.0 size=N/A time=00:03:39.06 bitrate=N/A speed=1.02x elapsed=0:03:33.87    frame= 3095 fps= 14 q=-1.0 size=N/A time=00:03:39.53 bitrate=N/A speed=1.02x elapsed=0:03:34.39    frame= 3103 fps= 14 q=-1.0 size=N/A time=00:03:40.06 bitrate=N/A speed=1.02x elapsed=0:03:34.89    frame= 3111 fps= 14 q=-1.0 size=N/A time=00:03:40.60 bitrate=N/A speed=1.02x elapsed=0:03:35.40    frame= 3118 fps= 14 q=-1.0 size=N/A time=00:03:41.06 bitrate=N/A speed=1.02x elapsed=0:03:35.90    frame= 3126 fps= 14 q=-1.0 size=N/A time=00:03:41.60 bitrate=N/A speed=1.02x elapsed=0:03:36.40    frame= 3133 fps= 14 q=-1.0 size=N/A time=00:03:42.06 bitrate=N/A speed=1.02x elapsed=0:03:36.91    frame= 3141 fps= 14 q=-1.0 size=N/A time=00:03:42.60 bitrate=N/A speed=1.02x elapsed=0:03:37.42    frame= 3148 fps= 14 q=-1.0 size=N/A time=00:03:43.06 bitrate=N/A speed=1.02x elapsed=0:03:37.92    frame= 3156 fps= 14 q=-1.0 size=N/A time=00:03:43.60 bitrate=N/A speed=1.02x elapsed=0:03:38.42    frame= 3164 fps= 14 q=-1.0 size=N/A time=00:03:44.13 bitrate=N/A speed=1.02x elapsed=0:03:38.93    frame= 3171 fps= 14 q=-1.0 size=N/A time=00:03:44.60 bitrate=N/A speed=1.02x elapsed=0:03:39.43    frame= 3179 fps= 14 q=-1.0 size=N/A time=00:03:45.13 bitrate=N/A speed=1.02x elapsed=0:03:39.94    frame= 3186 fps= 14 q=-1.0 size=N/A time=00:03:45.60 bitrate=N/A speed=1.02x elapsed=0:03:40.44    frame= 3194 fps= 14 q=-1.0 size=N/A time=00:03:46.13 bitrate=N/A speed=1.02x elapsed=0:03:40.95    frame= 3201 fps= 14 q=-1.0 size=N/A time=00:03:46.60 bitrate=N/A speed=1.02x elapsed=0:03:41.45    frame= 3209 fps= 14 q=-1.0 size=N/A time=00:03:47.13 bitrate=N/A speed=1.02x elapsed=0:03:41.95    frame= 3216 fps= 14 q=-1.0 size=N/A time=00:03:47.60 bitrate=N/A speed=1.02x elapsed=0:03:42.45    frame= 3224 fps= 14 q=-1.0 size=N/A time=00:03:48.13 bitrate=N/A speed=1.02x elapsed=0:03:42.96    frame= 3232 fps= 14 q=-1.0 size=N/A time=00:03:48.66 bitrate=N/A speed=1.02x elapsed=0:03:43.46    frame= 3239 fps= 14 q=-1.0 size=N/A time=00:03:49.13 bitrate=N/A speed=1.02x elapsed=0:03:43.96    frame= 3247 fps= 14 q=-1.0 size=N/A time=00:03:49.66 bitrate=N/A speed=1.02x elapsed=0:03:44.47    [hls @ 0x120604560] Opening '/Users/DEEL/Luca/vibe_check/vibecheck-backend/hls/venue-002/index12.ts' for writing
[hls @ 0x120604560] Opening '/Users/DEEL/Luca/vibe_check/vibecheck-backend/hls/venue-002/index.m3u8.tmp' for writing
frame= 3254 fps= 14 q=-1.0 size=N/A time=00:03:50.13 bitrate=N/A speed=1.02x elapsed=0:03:44.97    frame= 3262 fps= 14 q=-1.0 size=N/A time=00:03:50.66 bitrate=N/A speed=1.02x elapsed=0:03:45.48    frame= 3269 fps= 14 q=-1.0 size=N/A time=00:03:51.13 bitrate=N/A speed=1.02x elapsed=0:03:45.98    frame= 3277 fps= 14 q=-1.0 size=N/A time=00:03:51.66 bitrate=N/A speed=1.02x elapsed=0:03:46.48    frame= 3284 fps= 14 q=-1.0 size=N/A time=00:03:52.13 bitrate=N/A speed=1.02x elapsed=0:03:46.98    frame= 3292 fps= 14 q=-1.0 size=N/A time=00:03:52.66 bitrate=N/A speed=1.02x elapsed=0:03:47.49    frame= 3299 fps= 14 q=-1.0 size=N/A time=00:03:53.13 bitrate=N/A speed=1.02x elapsed=0:03:47.99    frame= 3307 fps= 14 q=-1.0 size=N/A time=00:03:53.66 bitrate=N/A speed=1.02x elapsed=0:03:48.49    frame= 3315 fps= 14 q=-1.0 size=N/A time=00:03:54.20 bitrate=N/A speed=1.02x elapsed=0:03:49.00    frame= 3322 fps= 14 q=-1.0 size=N/A time=00:03:54.66 bitrate=N/A speed=1.02x elapsed=0:03:49.50    frame= 3330 fps= 14 q=-1.0 size=N/A time=00:03:55.20 bitrate=N/A speed=1.02x elapsed=0:03:50.00    frame= 3337 fps= 14 q=-1.0 size=N/A time=00:03:55.66 bitrate=N/A speed=1.02x elapsed=0:03:50.50    frame= 3345 fps= 14 q=-1.0 size=N/A time=00:03:56.20 bitrate=N/A speed=1.02x elapsed=0:03:51.01    frame= 3352 fps= 14 q=-1.0 size=N/A time=00:03:56.66 bitrate=N/A speed=1.02x elapsed=0:03:51.51    frame= 3360 fps= 14 q=-1.0 size=N/A time=00:03:57.20 bitrate=N/A speed=1.02x elapsed=0:03:52.01    frame= 3367 fps= 14 q=-1.0 size=N/A time=00:03:57.66 bitrate=N/A speed=1.02x elapsed=0:03:52.51    frame= 3375 fps= 14 q=-1.0 size=N/A time=00:03:58.20 bitrate=N/A speed=1.02x elapsed=0:03:53.01    frame= 3382 fps= 14 q=-1.0 size=N/A time=00:03:58.66 bitrate=N/A speed=1.02x elapsed=0:03:53.52    frame= 3390 fps= 14 q=-1.0 size=N/A time=00:03:59.20 bitrate=N/A speed=1.02x elapsed=0:03:54.02    frame= 3397 fps= 14 q=-1.0 size=N/A time=00:03:59.66 bitrate=N/A speed=1.02x elapsed=0:03:54.53    frame= 3405 fps= 14 q=-1.0 size=N/A time=00:04:00.20 bitrate=N/A speed=1.02x elapsed=0:03:55.03    frame= 3413 fps= 14 q=-1.0 size=N/A time=00:04:00.73 bitrate=N/A speed=1.02x elapsed=0:03:55.53    frame= 3420 fps= 14 q=-1.0 size=N/A time=00:04:01.20 bitrate=N/A speed=1.02x elapsed=0:03:56.04    frame= 3428 fps= 14 q=-1.0 size=N/A time=00:04:01.73 bitrate=N/A speed=1.02x elapsed=0:03:56.54    frame= 3435 fps= 14 q=-1.0 size=N/A time=00:04:02.20 bitrate=N/A speed=1.02x elapsed=0:03:57.04    frame= 3443 fps= 14 q=-1.0 size=N/A time=00:04:02.73 bitrate=N/A speed=1.02x elapsed=0:03:57.55    frame= 3450 fps= 14 q=-1.0 size=N/A time=00:04:03.20 bitrate=N/A speed=1.02x elapsed=0:03:58.05    frame= 3458 fps= 14 q=-1.0 size=N/A time=00:04:03.73 bitrate=N/A speed=1.02x elapsed=0:03:58.56    frame= 3465 fps= 14 q=-1.0 size=N/A time=00:04:04.20 bitrate=N/A speed=1.02x elapsed=0:03:59.06    frame= 3473 fps= 14 q=-1.0 size=N/A time=00:04:04.73 bitrate=N/A speed=1.02x elapsed=0:03:59.57    frame= 3481 fps= 14 q=-1.0 size=N/A time=00:04:05.26 bitrate=N/A speed=1.02x elapsed=0:04:00.07    frame= 3488 fps= 14 q=-1.0 size=N/A time=00:04:05.73 bitrate=N/A speed=1.02x elapsed=0:04:00.57    frame= 3496 fps= 15 q=-1.0 size=N/A time=00:04:06.26 bitrate=N/A speed=1.02x elapsed=0:04:01.08    [hls @ 0x120604560] Opening '/Users/DEEL/Luca/vibe_check/vibecheck-backend/hls/venue-002/index13.ts' for writing
[hls @ 0x120604560] Opening '/Users/DEEL/Luca/vibe_check/vibecheck-backend/hls/venue-002/index.m3u8.tmp' for writing
frame= 3503 fps= 14 q=-1.0 size=N/A time=00:04:06.73 bitrate=N/A speed=1.02x elapsed=0:04:01.58    frame= 3511 fps= 15 q=-1.0 size=N/A time=00:04:07.26 bitrate=N/A speed=1.02x elapsed=0:04:02.09    frame= 3518 fps= 15 q=-1.0 size=N/A time=00:04:07.73 bitrate=N/A speed=1.02x elapsed=0:04:02.59    frame= 3525 fps= 14 q=-1.0 size=N/A time=00:04:08.20 bitrate=N/A speed=1.02x elapsed=0:04:03.10    frame= 3534 fps= 15 q=-1.0 size=N/A time=00:04:08.80 bitrate=N/A speed=1.02x elapsed=0:04:03.61    frame= 3541 fps= 15 q=-1.0 size=N/A time=00:04:09.26 bitrate=N/A speed=1.02x elapsed=0:04:04.11    frame= 3549 fps= 15 q=-1.0 size=N/A time=00:04:09.80 bitrate=N/A speed=1.02x elapsed=0:04:04.61    frame= 3556 fps= 15 q=-1.0 size=N/A time=00:04:10.26 bitrate=N/A speed=1.02x elapsed=0:04:05.11    frame= 3564 fps= 15 q=-1.0 size=N/A time=00:04:10.80 bitrate=N/A speed=1.02x elapsed=0:04:05.62    frame= 3571 fps= 15 q=-1.0 size=N/A time=00:04:11.26 bitrate=N/A speed=1.02x elapsed=0:04:06.12    frame= 3579 fps= 15 q=-1.0 size=N/A time=00:04:11.80 bitrate=N/A speed=1.02x elapsed=0:04:06.62    frame= 3587 fps= 15 q=-1.0 size=N/A time=00:04:12.33 bitrate=N/A speed=1.02x elapsed=0:04:07.13    frame= 3594 fps= 15 q=-1.0 size=N/A time=00:04:12.80 bitrate=N/A speed=1.02x elapsed=0:04:07.64    frame= 3602 fps= 15 q=-1.0 size=N/A time=00:04:13.33 bitrate=N/A speed=1.02x elapsed=0:04:08.14    frame= 3609 fps= 15 q=-1.0 size=N/A time=00:04:13.80 bitrate=N/A speed=1.02x elapsed=0:04:08.64    frame= 3617 fps= 15 q=-1.0 size=N/A time=00:04:14.33 bitrate=N/A speed=1.02x elapsed=0:04:09.14    frame= 3624 fps= 15 q=-1.0 size=N/A time=00:04:14.80 bitrate=N/A speed=1.02x elapsed=0:04:09.65    frame= 3632 fps= 15 q=-1.0 size=N/A time=00:04:15.33 bitrate=N/A speed=1.02x elapsed=0:04:10.15    frame= 3639 fps= 15 q=-1.0 size=N/A time=00:04:15.80 bitrate=N/A speed=1.02x elapsed=0:04:10.65    frame= 3647 fps= 15 q=-1.0 size=N/A time=00:04:16.33 bitrate=N/A speed=1.02x elapsed=0:04:11.15    frame= 3654 fps= 15 q=-1.0 size=N/A time=00:04:16.80 bitrate=N/A speed=1.02x elapsed=0:04:11.66    frame= 3662 fps= 15 q=-1.0 size=N/A time=00:04:17.33 bitrate=N/A speed=1.02x elapsed=0:04:12.16    frame= 3670 fps= 15 q=-1.0 size=N/A time=00:04:17.86 bitrate=N/A speed=1.02x elapsed=0:04:12.66    frame= 3677 fps= 15 q=-1.0 size=N/A time=00:04:18.33 bitrate=N/A speed=1.02x elapsed=0:04:13.17    frame= 3685 fps= 15 q=-1.0 size=N/A time=00:04:18.86 bitrate=N/A speed=1.02x elapsed=0:04:13.67    frame= 3692 fps= 15 q=-1.0 size=N/A time=00:04:19.33 bitrate=N/A speed=1.02x elapsed=0:04:14.17    frame= 3700 fps= 15 q=-1.0 size=N/A time=00:04:19.86 bitrate=N/A speed=1.02x elapsed=0:04:14.67    frame= 3707 fps= 15 q=-1.0 size=N/A time=00:04:20.33 bitrate=N/A speed=1.02x elapsed=0:04:15.17    frame= 3715 fps= 15 q=-1.0 size=N/A time=00:04:20.86 bitrate=N/A speed=1.02x elapsed=0:04:15.67    frame= 3722 fps= 15 q=-1.0 size=N/A time=00:04:21.33 bitrate=N/A speed=1.02x elapsed=0:04:16.18    frame= 3730 fps= 15 q=-1.0 size=N/A time=00:04:21.86 bitrate=N/A speed=1.02x elapsed=0:04:16.68    frame= 3737 fps= 15 q=-1.0 size=N/A time=00:04:22.33 bitrate=N/A speed=1.02x elapsed=0:04:17.18    frame= 3745 fps= 15 q=-1.0 size=N/A time=00:04:22.86 bitrate=N/A speed=1.02x elapsed=0:04:17.69    [hls @ 0x120604560] Opening '/Users/DEEL/Luca/vibe_check/vibecheck-backend/hls/venue-002/index14.ts' for writing
[hls @ 0x120604560] Opening '/Users/DEEL/Luca/vibe_check/vibecheck-backend/hls/venue-002/index.m3u8.tmp' for writing
frame= 3752 fps= 15 q=-1.0 size=N/A time=00:04:23.33 bitrate=N/A speed=1.02x elapsed=0:04:18.19    frame= 3760 fps= 15 q=-1.0 size=N/A time=00:04:23.86 bitrate=N/A speed=1.02x elapsed=0:04:18.69    frame= 3767 fps= 15 q=-1.0 size=N/A time=00:04:24.33 bitrate=N/A speed=1.02x elapsed=0:04:19.19    frame= 3775 fps= 15 q=-1.0 size=N/A time=00:04:24.86 bitrate=N/A speed=1.02x elapsed=0:04:19.70    frame= 3783 fps= 15 q=-1.0 size=N/A time=00:04:25.40 bitrate=N/A speed=1.02x elapsed=0:04:20.20    frame= 3790 fps= 15 q=-1.0 size=N/A time=00:04:25.86 bitrate=N/A speed=1.02x elapsed=0:04:20.70    frame= 3798 fps= 15 q=-1.0 size=N/A time=00:04:26.40 bitrate=N/A speed=1.02x elapsed=0:04:21.21    frame= 3805 fps= 15 q=-1.0 size=N/A time=00:04:26.86 bitrate=N/A speed=1.02x elapsed=0:04:21.71    frame= 3813 fps= 15 q=-1.0 size=N/A time=00:04:27.40 bitrate=N/A speed=1.02x elapsed=0:04:22.22    frame= 3820 fps= 15 q=-1.0 size=N/A time=00:04:27.86 bitrate=N/A speed=1.02x elapsed=0:04:22.72    frame= 3828 fps= 15 q=-1.0 size=N/A time=00:04:28.40 bitrate=N/A speed=1.02x elapsed=0:04:23.22    frame= 3836 fps= 15 q=-1.0 size=N/A time=00:04:28.93 bitrate=N/A speed=1.02x elapsed=0:04:23.73    frame= 3843 fps= 15 q=-1.0 size=N/A time=00:04:29.40 bitrate=N/A speed=1.02x elapsed=0:04:24.23    frame= 3851 fps= 15 q=-1.0 size=N/A time=00:04:29.93 bitrate=N/A speed=1.02x elapsed=0:04:24.73    frame= 3858 fps= 15 q=-1.0 size=N/A time=00:04:30.40 bitrate=N/A speed=1.02x elapsed=0:04:25.24    frame= 3866 fps= 15 q=-1.0 size=N/A time=00:04:30.93 bitrate=N/A speed=1.02x elapsed=0:04:25.74    frame= 3873 fps= 15 q=-1.0 size=N/A time=00:04:31.40 bitrate=N/A speed=1.02x elapsed=0:04:26.25    frame= 3881 fps= 15 q=-1.0 size=N/A time=00:04:31.93 bitrate=N/A speed=1.02x elapsed=0:04:26.75    frame= 3888 fps= 15 q=-1.0 size=N/A time=00:04:32.40 bitrate=N/A speed=1.02x elapsed=0:04:27.26    frame= 3896 fps= 15 q=-1.0 size=N/A time=00:04:32.93 bitrate=N/A speed=1.02x elapsed=0:04:27.76    frame= 3904 fps= 15 q=-1.0 size=N/A time=00:04:33.46 bitrate=N/A speed=1.02x elapsed=0:04:28.26    frame= 3911 fps= 15 q=-1.0 size=N/A time=00:04:33.93 bitrate=N/A speed=1.02x elapsed=0:04:28.77    frame= 3919 fps= 15 q=-1.0 size=N/A time=00:04:34.46 bitrate=N/A speed=1.02x elapsed=0:04:29.27    frame= 3926 fps= 15 q=-1.0 size=N/A time=00:04:34.93 bitrate=N/A speed=1.02x elapsed=0:04:29.77    frame= 3934 fps= 15 q=-1.0 size=N/A time=00:04:35.46 bitrate=N/A speed=1.02x elapsed=0:04:30.28    frame= 3941 fps= 15 q=-1.0 size=N/A time=00:04:35.93 bitrate=N/A speed=1.02x elapsed=0:04:30.78    frame= 3949 fps= 15 q=-1.0 size=N/A time=00:04:36.46 bitrate=N/A speed=1.02x elapsed=0:04:31.28    frame= 3956 fps= 15 q=-1.0 size=N/A time=00:04:36.93 bitrate=N/A speed=1.02x elapsed=0:04:31.78    frame= 3964 fps= 15 q=-1.0 size=N/A time=00:04:37.46 bitrate=N/A speed=1.02x elapsed=0:04:32.29    frame= 3972 fps= 15 q=-1.0 size=N/A time=00:04:38.00 bitrate=N/A speed=1.02x elapsed=0:04:32.79    frame= 3979 fps= 15 q=-1.0 size=N/A time=00:04:38.46 bitrate=N/A speed=1.02x elapsed=0:04:33.30    frame= 3987 fps= 15 q=-1.0 size=N/A time=00:04:39.00 bitrate=N/A speed=1.02x elapsed=0:04:33.80    frame= 3994 fps= 15 q=-1.0 size=N/A time=00:04:39.46 bitrate=N/A speed=1.02x elapsed=0:04:34.30    [hls @ 0x120604560] Opening '/Users/DEEL/Luca/vibe_check/vibecheck-backend/hls/venue-002/index15.ts' for writing
[hls @ 0x120604560] Opening '/Users/DEEL/Luca/vibe_check/vibecheck-backend/hls/venue-002/index.m3u8.tmp' for writing
frame= 4002 fps= 15 q=-1.0 size=N/A time=00:04:40.00 bitrate=N/A speed=1.02x elapsed=0:04:34.80    frame= 4009 fps= 15 q=-1.0 size=N/A time=00:04:40.46 bitrate=N/A speed=1.02x elapsed=0:04:35.31    frame= 4017 fps= 15 q=-1.0 size=N/A time=00:04:41.00 bitrate=N/A speed=1.02x elapsed=0:04:35.81    frame= 4024 fps= 15 q=-1.0 size=N/A time=00:04:41.46 bitrate=N/A speed=1.02x elapsed=0:04:36.32    frame= 4032 fps= 15 q=-1.0 size=N/A time=00:04:42.00 bitrate=N/A speed=1.02x elapsed=0:04:36.82    frame= 4039 fps= 15 q=-1.0 size=N/A time=00:04:42.46 bitrate=N/A speed=1.02x elapsed=0:04:37.32    frame= 4047 fps= 15 q=-1.0 size=N/A time=00:04:43.00 bitrate=N/A speed=1.02x elapsed=0:04:37.83    frame= 4055 fps= 15 q=-1.0 size=N/A time=00:04:43.53 bitrate=N/A speed=1.02x elapsed=0:04:38.33    frame= 4062 fps= 15 q=-1.0 size=N/A time=00:04:44.00 bitrate=N/A speed=1.02x elapsed=0:04:38.83    frame= 4070 fps= 15 q=-1.0 size=N/A time=00:04:44.53 bitrate=N/A speed=1.02x elapsed=0:04:39.33    frame= 4077 fps= 15 q=-1.0 size=N/A time=00:04:45.00 bitrate=N/A speed=1.02x elapsed=0:04:39.84    frame= 4085 fps= 15 q=-1.0 size=N/A time=00:04:45.53 bitrate=N/A speed=1.02x elapsed=0:04:40.34    frame= 4092 fps= 15 q=-1.0 size=N/A time=00:04:46.00 bitrate=N/A speed=1.02x elapsed=0:04:40.85    frame= 4100 fps= 15 q=-1.0 size=N/A time=00:04:46.53 bitrate=N/A speed=1.02x elapsed=0:04:41.35    frame= 4107 fps= 15 q=-1.0 size=N/A time=00:04:47.00 bitrate=N/A speed=1.02x elapsed=0:04:41.85    frame= 4115 fps= 15 q=-1.0 size=N/A time=00:04:47.53 bitrate=N/A speed=1.02x elapsed=0:04:42.36    frame= 4123 fps= 15 q=-1.0 size=N/A time=00:04:48.06 bitrate=N/A speed=1.02x elapsed=0:04:42.86    frame= 4130 fps= 15 q=-1.0 size=N/A time=00:04:48.53 bitrate=N/A speed=1.02x elapsed=0:04:43.37    frame= 4138 fps= 15 q=-1.0 size=N/A time=00:04:49.06 bitrate=N/A speed=1.02x elapsed=0:04:43.87    frame= 4145 fps= 15 q=-1.0 size=N/A time=00:04:49.53 bitrate=N/A speed=1.02x elapsed=0:04:44.38    frame= 4153 fps= 15 q=-1.0 size=N/A time=00:04:50.06 bitrate=N/A speed=1.02x elapsed=0:04:44.88    frame= 4160 fps= 15 q=-1.0 size=N/A time=00:04:50.53 bitrate=N/A speed=1.02x elapsed=0:04:45.39    frame= 4168 fps= 15 q=-1.0 size=N/A time=00:04:51.06 bitrate=N/A speed=1.02x elapsed=0:04:45.89    frame= 4176 fps= 15 q=-1.0 size=N/A time=00:04:51.60 bitrate=N/A speed=1.02x elapsed=0:04:46.39    frame= 4183 fps= 15 q=-1.0 size=N/A time=00:04:52.06 bitrate=N/A speed=1.02x elapsed=0:04:46.89    frame= 4191 fps= 15 q=-1.0 size=N/A time=00:04:52.60 bitrate=N/A speed=1.02x elapsed=0:04:47.40    frame= 4198 fps= 15 q=-1.0 size=N/A time=00:04:53.06 bitrate=N/A speed=1.02x elapsed=0:04:47.90    frame= 4206 fps= 15 q=-1.0 size=N/A time=00:04:53.60 bitrate=N/A speed=1.02x elapsed=0:04:48.40    frame= 4213 fps= 15 q=-1.0 size=N/A time=00:04:54.06 bitrate=N/A speed=1.02x elapsed=0:04:48.91    frame= 4221 fps= 15 q=-1.0 size=N/A time=00:04:54.60 bitrate=N/A speed=1.02x elapsed=0:04:49.41    frame= 4228 fps= 15 q=-1.0 size=N/A time=00:04:55.06 bitrate=N/A speed=1.02x elapsed=0:04:49.91    frame= 4236 fps= 15 q=-1.0 size=N/A time=00:04:55.60 bitrate=N/A speed=1.02x elapsed=0:04:50.41    frame= 4243 fps= 15 q=-1.0 size=N/A time=00:04:56.06 bitrate=N/A speed=1.02x elapsed=0:04:50.92    [hls @ 0x120604560] Opening '/Users/DEEL/Luca/vibe_check/vibecheck-backend/hls/venue-002/index16.ts' for writing
[hls @ 0x120604560] Opening '/Users/DEEL/Luca/vibe_check/vibecheck-backend/hls/venue-002/index.m3u8.tmp' for writing
frame= 4251 fps= 15 q=-1.0 size=N/A time=00:04:56.60 bitrate=N/A speed=1.02x elapsed=0:04:51.42    frame= 4258 fps= 15 q=-1.0 size=N/A time=00:04:57.06 bitrate=N/A speed=1.02x elapsed=0:04:51.92    frame= 4266 fps= 15 q=-1.0 size=N/A time=00:04:57.60 bitrate=N/A speed=1.02x elapsed=0:04:52.43    frame= 4274 fps= 15 q=-1.0 size=N/A time=00:04:58.13 bitrate=N/A speed=1.02x elapsed=0:04:52.93    frame= 4281 fps= 15 q=-1.0 size=N/A time=00:04:58.60 bitrate=N/A speed=1.02x elapsed=0:04:53.43    frame= 4289 fps= 15 q=-1.0 size=N/A time=00:04:59.13 bitrate=N/A speed=1.02x elapsed=0:04:53.94    frame= 4296 fps= 15 q=-1.0 size=N/A time=00:04:59.60 bitrate=N/A speed=1.02x elapsed=0:04:54.44    frame= 4304 fps= 15 q=-1.0 size=N/A time=00:05:00.13 bitrate=N/A speed=1.02x elapsed=0:04:54.95    frame= 4311 fps= 15 q=-1.0 size=N/A time=00:05:00.60 bitrate=N/A speed=1.02x elapsed=0:04:55.45    frame= 4319 fps= 15 q=-1.0 size=N/A time=00:05:01.13 bitrate=N/A speed=1.02x elapsed=0:04:55.95    frame= 4326 fps= 15 q=-1.0 size=N/A time=00:05:01.60 bitrate=N/A speed=1.02x elapsed=0:04:56.46    frame= 4334 fps= 15 q=-1.0 size=N/A time=00:05:02.13 bitrate=N/A speed=1.02x elapsed=0:04:56.96    frame= 4342 fps= 15 q=-1.0 size=N/A time=00:05:02.66 bitrate=N/A speed=1.02x elapsed=0:04:57.46    frame= 4349 fps= 15 q=-1.0 size=N/A time=00:05:03.13 bitrate=N/A speed=1.02x elapsed=0:04:57.97    frame= 4357 fps= 15 q=-1.0 size=N/A time=00:05:03.66 bitrate=N/A speed=1.02x elapsed=0:04:58.47    frame= 4364 fps= 15 q=-1.0 size=N/A time=00:05:04.13 bitrate=N/A speed=1.02x elapsed=0:04:58.97    frame= 4372 fps= 15 q=-1.0 size=N/A time=00:05:04.66 bitrate=N/A speed=1.02x elapsed=0:04:59.47    frame= 4379 fps= 15 q=-1.0 size=N/A time=00:05:05.13 bitrate=N/A speed=1.02x elapsed=0:04:59.97    frame= 4387 fps= 15 q=-1.0 size=N/A time=00:05:05.66 bitrate=N/A speed=1.02x elapsed=0:05:00.48    frame= 4394 fps= 15 q=-1.0 size=N/A time=00:05:06.13 bitrate=N/A speed=1.02x elapsed=0:05:00.98    frame= 4402 fps= 15 q=-1.0 size=N/A time=00:05:06.66 bitrate=N/A speed=1.02x elapsed=0:05:01.49    frame= 4409 fps= 15 q=-1.0 size=N/A time=00:05:07.13 bitrate=N/A speed=1.02x elapsed=0:05:01.99    frame= 4417 fps= 15 q=-1.0 size=N/A time=00:05:07.66 bitrate=N/A speed=1.02x elapsed=0:05:02.50    frame= 4425 fps= 15 q=-1.0 size=N/A time=00:05:08.20 bitrate=N/A speed=1.02x elapsed=0:05:03.00    frame= 4432 fps= 15 q=-1.0 size=N/A time=00:05:08.66 bitrate=N/A speed=1.02x elapsed=0:05:03.50    frame= 4440 fps= 15 q=-1.0 size=N/A time=00:05:09.20 bitrate=N/A speed=1.02x elapsed=0:05:04.00    frame= 4447 fps= 15 q=-1.0 size=N/A time=00:05:09.66 bitrate=N/A speed=1.02x elapsed=0:05:04.50    frame= 4455 fps= 15 q=-1.0 size=N/A time=00:05:10.20 bitrate=N/A speed=1.02x elapsed=0:05:05.01    frame= 4462 fps= 15 q=-1.0 size=N/A time=00:05:10.66 bitrate=N/A speed=1.02x elapsed=0:05:05.51    frame= 4470 fps= 15 q=-1.0 size=N/A time=00:05:11.20 bitrate=N/A speed=1.02x elapsed=0:05:06.02    frame= 4477 fps= 15 q=-1.0 size=N/A time=00:05:11.66 bitrate=N/A speed=1.02x elapsed=0:05:06.52    frame= 4485 fps= 15 q=-1.0 size=N/A time=00:05:12.20 bitrate=N/A speed=1.02x elapsed=0:05:07.02    frame= 4492 fps= 15 q=-1.0 size=N/A time=00:05:12.66 bitrate=N/A speed=1.02x elapsed=0:05:07.52    frame= 4500 fps= 15 q=-1.0 size=N/A time=00:05:13.20 bitrate=N/A speed=1.02x elapsed=0:05:08.03    [hls @ 0x120604560] Opening '/Users/DEEL/Luca/vibe_check/vibecheck-backend/hls/venue-002/index17.ts' for writing
[hls @ 0x120604560] Opening '/Users/DEEL/Luca/vibe_check/vibecheck-backend/hls/venue-002/index.m3u8.tmp' for writing
frame= 4507 fps= 15 q=-1.0 size=N/A time=00:05:13.66 bitrate=N/A speed=1.02x elapsed=0:05:08.53    frame= 4515 fps= 15 q=-1.0 size=N/A time=00:05:14.20 bitrate=N/A speed=1.02x elapsed=0:05:09.04    frame= 4523 fps= 15 q=-1.0 size=N/A time=00:05:14.73 bitrate=N/A speed=1.02x elapsed=0:05:09.54    frame= 4530 fps= 15 q=-1.0 size=N/A time=00:05:15.20 bitrate=N/A speed=1.02x elapsed=0:05:10.05    frame= 4538 fps= 15 q=-1.0 size=N/A time=00:05:15.73 bitrate=N/A speed=1.02x elapsed=0:05:10.55    frame= 4545 fps= 15 q=-1.0 size=N/A time=00:05:16.20 bitrate=N/A speed=1.02x elapsed=0:05:11.06    frame= 4553 fps= 15 q=-1.0 size=N/A time=00:05:16.73 bitrate=N/A speed=1.02x elapsed=0:05:11.56    frame= 4561 fps= 15 q=-1.0 size=N/A time=00:05:17.26 bitrate=N/A speed=1.02x elapsed=0:05:12.06    frame= 4568 fps= 15 q=-1.0 size=N/A time=00:05:17.73 bitrate=N/A speed=1.02x elapsed=0:05:12.57    frame= 4576 fps= 15 q=-1.0 size=N/A time=00:05:18.26 bitrate=N/A speed=1.02x elapsed=0:05:13.07    frame= 4583 fps= 15 q=-1.0 size=N/A time=00:05:18.73 bitrate=N/A speed=1.02x elapsed=0:05:13.58    frame= 4591 fps= 15 q=-1.0 size=N/A time=00:05:19.26 bitrate=N/A speed=1.02x elapsed=0:05:14.08    frame= 4598 fps= 15 q=-1.0 size=N/A time=00:05:19.73 bitrate=N/A speed=1.02x elapsed=0:05:14.58    frame= 4606 fps= 15 q=-1.0 size=N/A time=00:05:20.26 bitrate=N/A speed=1.02x elapsed=0:05:15.08    frame= 4613 fps= 15 q=-1.0 size=N/A time=00:05:20.73 bitrate=N/A speed=1.02x elapsed=0:05:15.58    frame= 4621 fps= 15 q=-1.0 size=N/A time=00:05:21.26 bitrate=N/A speed=1.02x elapsed=0:05:16.09    frame= 4628 fps= 15 q=-1.0 size=N/A time=00:05:21.73 bitrate=N/A speed=1.02x elapsed=0:05:16.59    frame= 4636 fps= 15 q=-1.0 size=N/A time=00:05:22.26 bitrate=N/A speed=1.02x elapsed=0:05:17.09    frame= 4643 fps= 15 q=-1.0 size=N/A time=00:05:22.73 bitrate=N/A speed=1.02x elapsed=0:05:17.60    frame= 4651 fps= 15 q=-1.0 size=N/A time=00:05:23.26 bitrate=N/A speed=1.02x elapsed=0:05:18.10    frame= 4659 fps= 15 q=-1.0 size=N/A time=00:05:23.80 bitrate=N/A speed=1.02x elapsed=0:05:18.60    frame= 4666 fps= 15 q=-1.0 size=N/A time=00:05:24.26 bitrate=N/A speed=1.02x elapsed=0:05:19.11    frame= 4674 fps= 15 q=-1.0 size=N/A time=00:05:24.80 bitrate=N/A speed=1.02x elapsed=0:05:19.61    frame= 4681 fps= 15 q=-1.0 size=N/A time=00:05:25.26 bitrate=N/A speed=1.02x elapsed=0:05:20.11    frame= 4689 fps= 15 q=-1.0 size=N/A time=00:05:25.80 bitrate=N/A speed=1.02x elapsed=0:05:20.62    frame= 4696 fps= 15 q=-1.0 size=N/A time=00:05:26.26 bitrate=N/A speed=1.02x elapsed=0:05:21.12    frame= 4704 fps= 15 q=-1.0 size=N/A time=00:05:26.80 bitrate=N/A speed=1.02x elapsed=0:05:21.62    frame= 4711 fps= 15 q=-1.0 size=N/A time=00:05:27.26 bitrate=N/A speed=1.02x elapsed=0:05:22.12    frame= 4719 fps= 15 q=-1.0 size=N/A time=00:05:27.80 bitrate=N/A speed=1.02x elapsed=0:05:22.62    frame= 4726 fps= 15 q=-1.0 size=N/A time=00:05:28.26 bitrate=N/A speed=1.02x elapsed=0:05:23.12    frame= 4734 fps= 15 q=-1.0 size=N/A time=00:05:28.80 bitrate=N/A speed=1.02x elapsed=0:05:23.63    frame= 4742 fps= 15 q=-1.0 size=N/A time=00:05:29.33 bitrate=N/A speed=1.02x elapsed=0:05:24.13    frame= 4749 fps= 15 q=-1.0 size=N/A time=00:05:29.80 bitrate=N/A speed=1.02x elapsed=0:05:24.64    [hls @ 0x120604560] Opening '/Users/DEEL/Luca/vibe_check/vibecheck-backend/hls/venue-002/index18.ts' for writing
[hls @ 0x120604560] Opening '/Users/DEEL/Luca/vibe_check/vibecheck-backend/hls/venue-002/index.m3u8.tmp' for writing
frame= 4754 fps= 15 q=-1.0 size=N/A time=00:05:30.13 bitrate=N/A speed=1.02x elapsed=0:05:25.14    frame= 4764 fps= 15 q=-1.0 size=N/A time=00:05:30.80 bitrate=N/A speed=1.02x elapsed=0:05:25.65    frame= 4772 fps= 15 q=-1.0 size=N/A time=00:05:31.33 bitrate=N/A speed=1.02x elapsed=0:05:26.15    frame= 4779 fps= 15 q=-1.0 size=N/A time=00:05:31.80 bitrate=N/A speed=1.02x elapsed=0:05:26.66    frame= 4787 fps= 15 q=-1.0 size=N/A time=00:05:32.33 bitrate=N/A speed=1.02x elapsed=0:05:27.16    frame= 4795 fps= 15 q=-1.0 size=N/A time=00:05:32.86 bitrate=N/A speed=1.02x elapsed=0:05:27.66    frame= 4802 fps= 15 q=-1.0 size=N/A time=00:05:33.33 bitrate=N/A speed=1.02x elapsed=0:05:28.16    frame= 4810 fps= 15 q=-1.0 size=N/A time=00:05:33.86 bitrate=N/A speed=1.02x elapsed=0:05:28.66    frame= 4817 fps= 15 q=-1.0 size=N/A time=00:05:34.33 bitrate=N/A speed=1.02x elapsed=0:05:29.17    frame= 4825 fps= 15 q=-1.0 size=N/A time=00:05:34.86 bitrate=N/A speed=1.02x elapsed=0:05:29.67    frame= 4832 fps= 15 q=-1.0 size=N/A time=00:05:35.33 bitrate=N/A speed=1.02x elapsed=0:05:30.17    frame= 4840 fps= 15 q=-1.0 size=N/A time=00:05:35.86 bitrate=N/A speed=1.02x elapsed=0:05:30.68    frame= 4847 fps= 15 q=-1.0 size=N/A time=00:05:36.33 bitrate=N/A speed=1.02x elapsed=0:05:31.18    frame= 4855 fps= 15 q=-1.0 size=N/A time=00:05:36.86 bitrate=N/A speed=1.02x elapsed=0:05:31.69    frame= 4862 fps= 15 q=-1.0 size=N/A time=00:05:37.33 bitrate=N/A speed=1.02x elapsed=0:05:32.19    frame= 4870 fps= 15 q=-1.0 size=N/A time=00:05:37.86 bitrate=N/A speed=1.02x elapsed=0:05:32.69    frame= 4877 fps= 15 q=-1.0 size=N/A time=00:05:38.33 bitrate=N/A speed=1.02x elapsed=0:05:33.19    frame= 4885 fps= 15 q=-1.0 size=N/A time=00:05:38.86 bitrate=N/A speed=1.02x elapsed=0:05:33.69    frame= 4892 fps= 15 q=-1.0 size=N/A time=00:05:39.33 bitrate=N/A speed=1.02x elapsed=0:05:34.20    frame= 4900 fps= 15 q=-1.0 size=N/A time=00:05:39.86 bitrate=N/A speed=1.02x elapsed=0:05:34.70    frame= 4908 fps= 15 q=-1.0 size=N/A time=00:05:40.40 bitrate=N/A speed=1.02x elapsed=0:05:35.21    frame= 4915 fps= 15 q=-1.0 size=N/A time=00:05:40.86 bitrate=N/A speed=1.02x elapsed=0:05:35.71    frame= 4923 fps= 15 q=-1.0 size=N/A time=00:05:41.40 bitrate=N/A speed=1.02x elapsed=0:05:36.22    frame= 4930 fps= 15 q=-1.0 size=N/A time=00:05:41.86 bitrate=N/A speed=1.02x elapsed=0:05:36.72    frame= 4938 fps= 15 q=-1.0 size=N/A time=00:05:42.40 bitrate=N/A speed=1.02x elapsed=0:05:37.22    frame= 4945 fps= 15 q=-1.0 size=N/A time=00:05:42.86 bitrate=N/A speed=1.02x elapsed=0:05:37.73    frame= 4952 fps= 15 q=-1.0 size=N/A time=00:05:43.33 bitrate=N/A speed=1.01x elapsed=0:05:38.31    frame= 4962 fps= 15 q=-1.0 size=N/A time=00:05:44.00 bitrate=N/A speed=1.02x elapsed=0:05:38.82    frame= 4969 fps= 15 q=-1.0 size=N/A time=00:05:44.46 bitrate=N/A speed=1.02x elapsed=0:05:39.32    frame= 4977 fps= 15 q=-1.0 size=N/A time=00:05:45.00 bitrate=N/A speed=1.02x elapsed=0:05:39.82    frame= 4984 fps= 15 q=-1.0 size=N/A time=00:05:45.46 bitrate=N/A speed=1.02x elapsed=0:05:40.32    frame= 4992 fps= 15 q=-1.0 size=N/A time=00:05:46.00 bitrate=N/A speed=1.02x elapsed=0:05:40.83    frame= 5000 fps= 15 q=-1.0 size=N/A time=00:05:46.53 bitrate=N/A speed=1.02x elapsed=0:05:41.33    [hls @ 0x120604560] Opening '/Users/DEEL/Luca/vibe_check/vibecheck-backend/hls/venue-002/index19.ts' for writing
[hls @ 0x120604560] Opening '/Users/DEEL/Luca/vibe_check/vibecheck-backend/hls/venue-002/index.m3u8.tmp' for writing
frame= 5007 fps= 15 q=-1.0 size=N/A time=00:05:47.00 bitrate=N/A speed=1.02x elapsed=0:05:41.84    frame= 5015 fps= 15 q=-1.0 size=N/A time=00:05:47.53 bitrate=N/A speed=1.02x elapsed=0:05:42.34    frame= 5022 fps= 15 q=-1.0 size=N/A time=00:05:48.00 bitrate=N/A speed=1.02x elapsed=0:05:42.85    frame= 5030 fps= 15 q=-1.0 size=N/A time=00:05:48.53 bitrate=N/A speed=1.02x elapsed=0:05:43.35    frame= 5037 fps= 15 q=-1.0 size=N/A time=00:05:49.00 bitrate=N/A speed=1.01x elapsed=0:05:43.85    frame= 5045 fps= 15 q=-1.0 size=N/A time=00:05:49.53 bitrate=N/A speed=1.02x elapsed=0:05:44.36    frame= 5053 fps= 15 q=-1.0 size=N/A time=00:05:50.06 bitrate=N/A speed=1.02x elapsed=0:05:44.86    frame= 5060 fps= 15 q=-1.0 size=N/A time=00:05:50.53 bitrate=N/A speed=1.01x elapsed=0:05:45.37    frame= 5068 fps= 15 q=-1.0 size=N/A time=00:05:51.06 bitrate=N/A speed=1.02x elapsed=0:05:45.87    frame= 5075 fps= 15 q=-1.0 size=N/A time=00:05:51.53 bitrate=N/A speed=1.01x elapsed=0:05:46.37    frame= 5083 fps= 15 q=-1.0 size=N/A time=00:05:52.06 bitrate=N/A speed=1.01x elapsed=0:05:46.88    frame= 5090 fps= 15 q=-1.0 size=N/A time=00:05:52.53 bitrate=N/A speed=1.01x elapsed=0:05:47.38    frame= 5098 fps= 15 q=-1.0 size=N/A time=00:05:53.06 bitrate=N/A speed=1.01x elapsed=0:05:47.89    frame= 5104 fps= 15 q=-1.0 size=N/A time=00:05:53.46 bitrate=N/A speed=1.01x elapsed=0:05:48.39    frame= 5114 fps= 15 q=-1.0 size=N/A time=00:05:54.13 bitrate=N/A speed=1.01x elapsed=0:05:48.96    frame= 5122 fps= 15 q=-1.0 size=N/A time=00:05:54.66 bitrate=N/A speed=1.01x elapsed=0:05:49.46    frame= 5129 fps= 15 q=-1.0 size=N/A time=00:05:55.13 bitrate=N/A speed=1.01x elapsed=0:05:49.96    frame= 5137 fps= 15 q=-1.0 size=N/A time=00:05:55.66 bitrate=N/A speed=1.01x elapsed=0:05:50.47    frame= 5144 fps= 15 q=-1.0 size=N/A time=00:05:56.13 bitrate=N/A speed=1.01x elapsed=0:05:50.97    frame= 5152 fps= 15 q=-1.0 size=N/A time=00:05:56.66 bitrate=N/A speed=1.01x elapsed=0:05:51.47    frame= 5159 fps= 15 q=-1.0 size=N/A time=00:05:57.13 bitrate=N/A speed=1.01x elapsed=0:05:51.98    frame= 5167 fps= 15 q=-1.0 size=N/A time=00:05:57.66 bitrate=N/A speed=1.01x elapsed=0:05:52.48    frame= 5174 fps= 15 q=-1.0 size=N/A time=00:05:58.13 bitrate=N/A speed=1.01x elapsed=0:05:52.99    frame= 5182 fps= 15 q=-1.0 size=N/A time=00:05:58.66 bitrate=N/A speed=1.01x elapsed=0:05:53.49    frame= 5189 fps= 15 q=-1.0 size=N/A time=00:05:59.13 bitrate=N/A speed=1.01x elapsed=0:05:53.99    frame= 5197 fps= 15 q=-1.0 size=N/A time=00:05:59.66 bitrate=N/A speed=1.01x elapsed=0:05:54.49    frame= 5205 fps= 15 q=-1.0 size=N/A time=00:06:00.20 bitrate=N/A speed=1.01x elapsed=0:05:55.00    frame= 5212 fps= 15 q=-1.0 size=N/A time=00:06:00.66 bitrate=N/A speed=1.01x elapsed=0:05:55.50    frame= 5220 fps= 15 q=-1.0 size=N/A time=00:06:01.20 bitrate=N/A speed=1.01x elapsed=0:05:56.00    frame= 5227 fps= 15 q=-1.0 size=N/A time=00:06:01.66 bitrate=N/A speed=1.01x elapsed=0:05:56.50    frame= 5235 fps= 15 q=-1.0 size=N/A time=00:06:02.20 bitrate=N/A speed=1.01x elapsed=0:05:57.01    frame= 5242 fps= 15 q=-1.0 size=N/A time=00:06:02.66 bitrate=N/A speed=1.01x elapsed=0:05:57.51    frame= 5250 fps= 15 q=-1.0 size=N/A time=00:06:03.20 bitrate=N/A speed=1.01x elapsed=0:05:58.02    [hls @ 0x120604560] Opening '/Users/DEEL/Luca/vibe_check/vibecheck-backend/hls/venue-002/index20.ts' for writing
[hls @ 0x120604560] Opening '/Users/DEEL/Luca/vibe_check/vibecheck-backend/hls/venue-002/index.m3u8.tmp' for writing
frame= 5257 fps= 15 q=-1.0 size=N/A time=00:06:03.66 bitrate=N/A speed=1.01x elapsed=0:05:58.52    frame= 5265 fps= 15 q=-1.0 size=N/A time=00:06:04.20 bitrate=N/A speed=1.01x elapsed=0:05:59.02    frame= 5273 fps= 15 q=-1.0 size=N/A time=00:06:04.73 bitrate=N/A speed=1.01x elapsed=0:05:59.53    frame= 5280 fps= 15 q=-1.0 size=N/A time=00:06:05.20 bitrate=N/A speed=1.01x elapsed=0:06:00.03    frame= 5288 fps= 15 q=-1.0 size=N/A time=00:06:05.73 bitrate=N/A speed=1.01x elapsed=0:06:00.53    frame= 5295 fps= 15 q=-1.0 size=N/A time=00:06:06.20 bitrate=N/A speed=1.01x elapsed=0:06:01.04    frame= 5303 fps= 15 q=-1.0 size=N/A time=00:06:06.73 bitrate=N/A speed=1.01x elapsed=0:06:01.55    frame= 5310 fps= 15 q=-1.0 size=N/A time=00:06:07.20 bitrate=N/A speed=1.01x elapsed=0:06:02.05    frame= 5318 fps= 15 q=-1.0 size=N/A time=00:06:07.73 bitrate=N/A speed=1.01x elapsed=0:06:02.55    frame= 5325 fps= 15 q=-1.0 size=N/A time=00:06:08.20 bitrate=N/A speed=1.01x elapsed=0:06:03.05    frame= 5333 fps= 15 q=-1.0 size=N/A time=00:06:08.73 bitrate=N/A speed=1.01x elapsed=0:06:03.55    frame= 5341 fps= 15 q=-1.0 size=N/A time=00:06:09.26 bitrate=N/A speed=1.01x elapsed=0:06:04.06    frame= 5348 fps= 15 q=-1.0 size=N/A time=00:06:09.73 bitrate=N/A speed=1.01x elapsed=0:06:04.56    frame= 5355 fps= 15 q=-1.0 size=N/A time=00:06:10.20 bitrate=N/A speed=1.01x elapsed=0:06:05.07    frame= 5363 fps= 15 q=-1.0 size=N/A time=00:06:10.73 bitrate=N/A speed=1.01x elapsed=0:06:05.57    frame= 5371 fps= 15 q=-1.0 size=N/A time=00:06:11.26 bitrate=N/A speed=1.01x elapsed=0:06:06.07    frame= 5378 fps= 15 q=-1.0 size=N/A time=00:06:11.73 bitrate=N/A speed=1.01x elapsed=0:06:06.57    frame= 5386 fps= 15 q=-1.0 size=N/A time=00:06:12.26 bitrate=N/A speed=1.01x elapsed=0:06:07.08    frame= 5393 fps= 15 q=-1.0 size=N/A time=00:06:12.73 bitrate=N/A speed=1.01x elapsed=0:06:07.58    frame= 5401 fps= 15 q=-1.0 size=N/A time=00:06:13.26 bitrate=N/A speed=1.01x elapsed=0:06:08.09    frame= 5408 fps= 15 q=-1.0 size=N/A time=00:06:13.73 bitrate=N/A speed=1.01x elapsed=0:06:08.59    frame= 5416 fps= 15 q=-1.0 size=N/A time=00:06:14.26 bitrate=N/A speed=1.01x elapsed=0:06:09.10    frame= 5424 fps= 15 q=-1.0 size=N/A time=00:06:14.80 bitrate=N/A speed=1.01x elapsed=0:06:09.60    frame= 5431 fps= 15 q=-1.0 size=N/A time=00:06:15.26 bitrate=N/A speed=1.01x elapsed=0:06:10.10    frame= 5439 fps= 15 q=-1.0 size=N/A time=00:06:15.80 bitrate=N/A speed=1.01x elapsed=0:06:10.61    frame= 5446 fps= 15 q=-1.0 size=N/A time=00:06:16.26 bitrate=N/A speed=1.01x elapsed=0:06:11.11    frame= 5454 fps= 15 q=-1.0 size=N/A time=00:06:16.80 bitrate=N/A speed=1.01x elapsed=0:06:11.62    frame= 5461 fps= 15 q=-1.0 size=N/A time=00:06:17.26 bitrate=N/A speed=1.01x elapsed=0:06:12.12    frame= 5469 fps= 15 q=-1.0 size=N/A time=00:06:17.80 bitrate=N/A speed=1.01x elapsed=0:06:12.63    frame= 5476 fps= 15 q=-1.0 size=N/A time=00:06:18.26 bitrate=N/A speed=1.01x elapsed=0:06:13.13    frame= 5484 fps= 15 q=-1.0 size=N/A time=00:06:18.80 bitrate=N/A speed=1.01x elapsed=0:06:13.63    frame= 5492 fps= 15 q=-1.0 size=N/A time=00:06:19.33 bitrate=N/A speed=1.01x elapsed=0:06:14.13    frame= 5499 fps= 15 q=-1.0 size=N/A time=00:06:19.80 bitrate=N/A speed=1.01x elapsed=0:06:14.64    [hls @ 0x120604560] Opening '/Users/DEEL/Luca/vibe_check/vibecheck-backend/hls/venue-002/index21.ts' for writing
[hls @ 0x120604560] Opening '/Users/DEEL/Luca/vibe_check/vibecheck-backend/hls/venue-002/index.m3u8.tmp' for writing
frame= 5507 fps= 15 q=-1.0 size=N/A time=00:06:20.33 bitrate=N/A speed=1.01x elapsed=0:06:15.14    frame= 5514 fps= 15 q=-1.0 size=N/A time=00:06:20.80 bitrate=N/A speed=1.01x elapsed=0:06:15.65    frame= 5522 fps= 15 q=-1.0 size=N/A time=00:06:21.33 bitrate=N/A speed=1.01x elapsed=0:06:16.15    frame= 5529 fps= 15 q=-1.0 size=N/A time=00:06:21.80 bitrate=N/A speed=1.01x elapsed=0:06:16.66    frame= 5537 fps= 15 q=-1.0 size=N/A time=00:06:22.33 bitrate=N/A speed=1.01x elapsed=0:06:17.16    frame= 5544 fps= 15 q=-1.0 size=N/A time=00:06:22.80 bitrate=N/A speed=1.01x elapsed=0:06:17.67    frame= 5552 fps= 15 q=-1.0 size=N/A time=00:06:23.33 bitrate=N/A speed=1.01x elapsed=0:06:18.17    frame= 5560 fps= 15 q=-1.0 size=N/A time=00:06:23.86 bitrate=N/A speed=1.01x elapsed=0:06:18.68    frame= 5567 fps= 15 q=-1.0 size=N/A time=00:06:24.33 bitrate=N/A speed=1.01x elapsed=0:06:19.18    frame= 5575 fps= 15 q=-1.0 size=N/A time=00:06:24.86 bitrate=N/A speed=1.01x elapsed=0:06:19.69    frame= 5582 fps= 15 q=-1.0 size=N/A time=00:06:25.33 bitrate=N/A speed=1.01x elapsed=0:06:20.19    frame= 5590 fps= 15 q=-1.0 size=N/A time=00:06:25.86 bitrate=N/A speed=1.01x elapsed=0:06:20.70    frame= 5598 fps= 15 q=-1.0 size=N/A time=00:06:26.40 bitrate=N/A speed=1.01x elapsed=0:06:21.20    frame= 5605 fps= 15 q=-1.0 size=N/A time=00:06:26.86 bitrate=N/A speed=1.01x elapsed=0:06:21.71    frame= 5613 fps= 15 q=-1.0 size=N/A time=00:06:27.40 bitrate=N/A speed=1.01x elapsed=0:06:22.21    frame= 5620 fps= 15 q=-1.0 size=N/A time=00:06:27.86 bitrate=N/A speed=1.01x elapsed=0:06:22.71    frame= 5628 fps= 15 q=-1.0 size=N/A time=00:06:28.40 bitrate=N/A speed=1.01x elapsed=0:06:23.22    frame= 5635 fps= 15 q=-1.0 size=N/A time=00:06:28.86 bitrate=N/A speed=1.01x elapsed=0:06:23.72    frame= 5643 fps= 15 q=-1.0 size=N/A time=00:06:29.40 bitrate=N/A speed=1.01x elapsed=0:06:24.23    frame= 5651 fps= 15 q=-1.0 size=N/A time=00:06:29.93 bitrate=N/A speed=1.01x elapsed=0:06:24.73    frame= 5658 fps= 15 q=-1.0 size=N/A time=00:06:30.40 bitrate=N/A speed=1.01x elapsed=0:06:25.24    frame= 5666 fps= 15 q=-1.0 size=N/A time=00:06:30.93 bitrate=N/A speed=1.01x elapsed=0:06:25.74    frame= 5673 fps= 15 q=-1.0 size=N/A time=00:06:31.40 bitrate=N/A speed=1.01x elapsed=0:06:26.25    frame= 5681 fps= 15 q=-1.0 size=N/A time=00:06:31.93 bitrate=N/A speed=1.01x elapsed=0:06:26.75    frame= 5688 fps= 15 q=-1.0 size=N/A time=00:06:32.40 bitrate=N/A speed=1.01x elapsed=0:06:27.25    frame= 5696 fps= 15 q=-1.0 size=N/A time=00:06:32.93 bitrate=N/A speed=1.01x elapsed=0:06:27.76    frame= 5704 fps= 15 q=-1.0 size=N/A time=00:06:33.46 bitrate=N/A speed=1.01x elapsed=0:06:28.26    frame= 5711 fps= 15 q=-1.0 size=N/A time=00:06:33.93 bitrate=N/A speed=1.01x elapsed=0:06:28.76    frame= 5719 fps= 15 q=-1.0 size=N/A time=00:06:34.46 bitrate=N/A speed=1.01x elapsed=0:06:29.27    frame= 5726 fps= 15 q=-1.0 size=N/A time=00:06:34.93 bitrate=N/A speed=1.01x elapsed=0:06:29.77    frame= 5734 fps= 15 q=-1.0 size=N/A time=00:06:35.46 bitrate=N/A speed=1.01x elapsed=0:06:30.27    frame= 5741 fps= 15 q=-1.0 size=N/A time=00:06:35.93 bitrate=N/A speed=1.01x elapsed=0:06:30.78    frame= 5749 fps= 15 q=-1.0 size=N/A time=00:06:36.46 bitrate=N/A speed=1.01x elapsed=0:06:31.28    [hls @ 0x120604560] Opening '/Users/DEEL/Luca/vibe_check/vibecheck-backend/hls/venue-002/index22.ts' for writing
[hls @ 0x120604560] Opening '/Users/DEEL/Luca/vibe_check/vibecheck-backend/hls/venue-002/index.m3u8.tmp' for writing
frame= 5756 fps= 15 q=-1.0 size=N/A time=00:06:36.93 bitrate=N/A speed=1.01x elapsed=0:06:31.79    frame= 5764 fps= 15 q=-1.0 size=N/A time=00:06:37.46 bitrate=N/A speed=1.01x elapsed=0:06:32.29    frame= 5772 fps= 15 q=-1.0 size=N/A time=00:06:38.00 bitrate=N/A speed=1.01x elapsed=0:06:32.80    frame= 5779 fps= 15 q=-1.0 size=N/A time=00:06:38.46 bitrate=N/A speed=1.01x elapsed=0:06:33.30    frame= 5786 fps= 15 q=-1.0 size=N/A time=00:06:38.93 bitrate=N/A speed=1.01x elapsed=0:06:33.80    frame= 5794 fps= 15 q=-1.0 size=N/A time=00:06:39.46 bitrate=N/A speed=1.01x elapsed=0:06:34.30    frame= 5802 fps= 15 q=-1.0 size=N/A time=00:06:40.00 bitrate=N/A speed=1.01x elapsed=0:06:34.80    frame= 5809 fps= 15 q=-1.0 size=N/A time=00:06:40.46 bitrate=N/A speed=1.01x elapsed=0:06:35.31    frame= 5817 fps= 15 q=-1.0 size=N/A time=00:06:41.00 bitrate=N/A speed=1.01x elapsed=0:06:35.81    frame= 5824 fps= 15 q=-1.0 size=N/A time=00:06:41.46 bitrate=N/A speed=1.01x elapsed=0:06:36.31    frame= 5832 fps= 15 q=-1.0 size=N/A time=00:06:42.00 bitrate=N/A speed=1.01x elapsed=0:06:36.82    frame= 5839 fps= 15 q=-1.0 size=N/A time=00:06:42.46 bitrate=N/A speed=1.01x elapsed=0:06:37.32    frame= 5847 fps= 15 q=-1.0 size=N/A time=00:06:43.00 bitrate=N/A speed=1.01x elapsed=0:06:37.83    frame= 5854 fps= 15 q=-1.0 size=N/A time=00:06:43.46 bitrate=N/A speed=1.01x elapsed=0:06:38.33    frame= 5862 fps= 15 q=-1.0 size=N/A time=00:06:44.00 bitrate=N/A speed=1.01x elapsed=0:06:38.83    frame= 5870 fps= 15 q=-1.0 size=N/A time=00:06:44.53 bitrate=N/A speed=1.01x elapsed=0:06:39.34    frame= 5877 fps= 15 q=-1.0 size=N/A time=00:06:45.00 bitrate=N/A speed=1.01x elapsed=0:06:39.84    frame= 5885 fps= 15 q=-1.0 size=N/A time=00:06:45.53 bitrate=N/A speed=1.01x elapsed=0:06:40.35    frame= 5892 fps= 15 q=-1.0 size=N/A time=00:06:46.00 bitrate=N/A speed=1.01x elapsed=0:06:40.85    frame= 5900 fps= 15 q=-1.0 size=N/A time=00:06:46.53 bitrate=N/A speed=1.01x elapsed=0:06:41.35    frame= 5907 fps= 15 q=-1.0 size=N/A time=00:06:47.00 bitrate=N/A speed=1.01x elapsed=0:06:41.86    frame= 5915 fps= 15 q=-1.0 size=N/A time=00:06:47.53 bitrate=N/A speed=1.01x elapsed=0:06:42.36    frame= 5923 fps= 15 q=-1.0 size=N/A time=00:06:48.06 bitrate=N/A speed=1.01x elapsed=0:06:42.86    frame= 5930 fps= 15 q=-1.0 size=N/A time=00:06:48.53 bitrate=N/A speed=1.01x elapsed=0:06:43.37    frame= 5938 fps= 15 q=-1.0 size=N/A time=00:06:49.06 bitrate=N/A speed=1.01x elapsed=0:06:43.87    frame= 5945 fps= 15 q=-1.0 size=N/A time=00:06:49.53 bitrate=N/A speed=1.01x elapsed=0:06:44.37    frame= 5953 fps= 15 q=-1.0 size=N/A time=00:06:50.06 bitrate=N/A speed=1.01x elapsed=0:06:44.87    frame= 5960 fps= 15 q=-1.0 size=N/A time=00:06:50.53 bitrate=N/A speed=1.01x elapsed=0:06:45.38    frame= 5968 fps= 15 q=-1.0 size=N/A time=00:06:51.06 bitrate=N/A speed=1.01x elapsed=0:06:45.88    frame= 5975 fps= 15 q=-1.0 size=N/A time=00:06:51.53 bitrate=N/A speed=1.01x elapsed=0:06:46.39    frame= 5983 fps= 15 q=-1.0 size=N/A time=00:06:52.06 bitrate=N/A speed=1.01x elapsed=0:06:46.89    frame= 5991 fps= 15 q=-1.0 size=N/A time=00:06:52.60 bitrate=N/A speed=1.01x elapsed=0:06:47.40    frame= 5998 fps= 15 q=-1.0 size=N/A time=00:06:53.06 bitrate=N/A speed=1.01x elapsed=0:06:47.90    [hls @ 0x120604560] Opening '/Users/DEEL/Luca/vibe_check/vibecheck-backend/hls/venue-002/index23.ts' for writing
[hls @ 0x120604560] Opening '/Users/DEEL/Luca/vibe_check/vibecheck-backend/hls/venue-002/index.m3u8.tmp' for writing
frame= 6006 fps= 15 q=-1.0 size=N/A time=00:06:53.60 bitrate=N/A speed=1.01x elapsed=0:06:48.40    frame= 6013 fps= 15 q=-1.0 size=N/A time=00:06:54.06 bitrate=N/A speed=1.01x elapsed=0:06:48.91    frame= 6021 fps= 15 q=-1.0 size=N/A time=00:06:54.60 bitrate=N/A speed=1.01x elapsed=0:06:49.41    frame= 6028 fps= 15 q=-1.0 size=N/A time=00:06:55.06 bitrate=N/A speed=1.01x elapsed=0:06:49.91    frame= 6036 fps= 15 q=-1.0 size=N/A time=00:06:55.60 bitrate=N/A speed=1.01x elapsed=0:06:50.41    frame= 6043 fps= 15 q=-1.0 size=N/A time=00:06:56.06 bitrate=N/A speed=1.01x elapsed=0:06:50.92    frame= 6051 fps= 15 q=-1.0 size=N/A time=00:06:56.60 bitrate=N/A speed=1.01x elapsed=0:06:51.42    frame= 6058 fps= 15 q=-1.0 size=N/A time=00:06:57.06 bitrate=N/A speed=1.01x elapsed=0:06:51.92    frame= 6066 fps= 15 q=-1.0 size=N/A time=00:06:57.60 bitrate=N/A speed=1.01x elapsed=0:06:52.43    frame= 6074 fps= 15 q=-1.0 size=N/A time=00:06:58.13 bitrate=N/A speed=1.01x elapsed=0:06:52.94    frame= 6081 fps= 15 q=-1.0 size=N/A time=00:06:58.60 bitrate=N/A speed=1.01x elapsed=0:06:53.44    frame= 6089 fps= 15 q=-1.0 size=N/A time=00:06:59.13 bitrate=N/A speed=1.01x elapsed=0:06:53.94    frame= 6096 fps= 15 q=-1.0 size=N/A time=00:06:59.60 bitrate=N/A speed=1.01x elapsed=0:06:54.44    frame= 6104 fps= 15 q=-1.0 size=N/A time=00:07:00.13 bitrate=N/A speed=1.01x elapsed=0:06:54.94    frame= 6111 fps= 15 q=-1.0 size=N/A time=00:07:00.60 bitrate=N/A speed=1.01x elapsed=0:06:55.45    frame= 6119 fps= 15 q=-1.0 size=N/A time=00:07:01.13 bitrate=N/A speed=1.01x elapsed=0:06:55.95    frame= 6126 fps= 15 q=-1.0 size=N/A time=00:07:01.60 bitrate=N/A speed=1.01x elapsed=0:06:56.45    frame= 6134 fps= 15 q=-1.0 size=N/A time=00:07:02.13 bitrate=N/A speed=1.01x elapsed=0:06:56.96    frame= 6141 fps= 15 q=-1.0 size=N/A time=00:07:02.60 bitrate=N/A speed=1.01x elapsed=0:06:57.46    frame= 6149 fps= 15 q=-1.0 size=N/A time=00:07:03.13 bitrate=N/A speed=1.01x elapsed=0:06:57.96    frame= 6157 fps= 15 q=-1.0 size=N/A time=00:07:03.66 bitrate=N/A speed=1.01x elapsed=0:06:58.47    frame= 6164 fps= 15 q=-1.0 size=N/A time=00:07:04.13 bitrate=N/A speed=1.01x elapsed=0:06:58.97    frame= 6172 fps= 15 q=-1.0 size=N/A time=00:07:04.66 bitrate=N/A speed=1.01x elapsed=0:06:59.47    frame= 6179 fps= 15 q=-1.0 size=N/A time=00:07:05.13 bitrate=N/A speed=1.01x elapsed=0:06:59.97    frame= 6187 fps= 15 q=-1.0 size=N/A time=00:07:05.66 bitrate=N/A speed=1.01x elapsed=0:07:00.49    